<?xml version="1.0" encoding="UTF-8"?>
<svg width="100%" viewBox="0 0 645 111" version="1.1" xmlns="http://www.w3.org/2000/svg" xmlns:xlink="http://www.w3.org/1999/xlink">
  <path d="M537,110.25 C567,110.25 588,89.25 588,59.25 L588,3 L549,3 L549,59.25 C549,67.5 543.75,72.75 537,72.75 C530.25,72.75 525,67.5 525,59.25 L525,3 L486,3 L486,59.25 C486,89.25 507,110.25 537,110.25 Z M645,108 L645,3 L606,3 L606,108 L645,108 Z" class="fill-current" fill-rule="nonzero"></path>
  <path d="M45,109.5 C84.9,109.5 105,87.75 105,55.5 C105,23.25 84.9,1.5 45,1.5 C21,1.5 0,3 0,3 L0,108 C0,108 21,109.5 45,109.5 Z M45,76.5 L39,76.5 L39,34.5 L45,34.5 C56.25,34.5 63,41.25 63,55.5 C63,69.75 56.25,76.5 45,76.5 Z M153,108 L156,93 L175.5,93 L178.5,108 L222,108 C222,108 191.4,3.6 191.25,3 L140.25,3 L109.5,108 L153,108 Z M171,69 L160.5,69 L165.75,42 L171,69 Z M271.5,108 L271.5,3 L232.5,3 L232.5,108 L271.5,108 Z M328.5,110.25 C354.75,110.25 371.25,93.75 371.25,76.5 C371.25,43.5 330.75,43.5 330.75,36 C330.75,33.75 333,31.5 336.75,31.5 C347.25,31.5 356.25,39.75 356.25,39.75 L370.5,17.25 C370.5,17.25 357,0.75 330,0.75 C303.75,0.75 287.25,17.25 287.25,34.5 C287.25,67.5 327.75,67.5 327.75,75 C327.75,77.25 325.5,79.5 321.75,79.5 C306.75,79.5 296.25,69.75 296.25,69.75 L282,92.25 C282,92.25 295.5,110.25 328.5,110.25 Z M443.25,108 L443.25,67.5 L479.25,3 L434.25,3 L423.75,33 L413.25,3 L368.25,3 L404.25,67.5 L404.25,108 L443.25,108 Z" fill-rule="nonzero" class="fill-current"></path>
</svg>
