<?xml version="1.0" encoding="UTF-8"?>
<svg width="100%" viewBox="0 0 195 82" version="1.1" xmlns="http://www.w3.org/2000/svg" xmlns:xlink="http://www.w3.org/1999/xlink">
  <path d="M22.28,56.44 C23.08,56.48 23.86,56.39 24.62,56.17 C25.38,55.95 26.09,55.67 26.75,55.33 C27.41,54.99 28.01,54.63 28.55,54.25 C29.09,53.87 29.54,53.52 29.9,53.2 C32.18,51.36 34.25,49.29 36.11,46.99 C37.97,44.69 39.76,42.36 41.48,40 L41.48,40 L41.48,39.94 L43.22,37.54 C43.46,37.26 43.46,36.93 43.22,36.55 C42.98,36.17 42.66,35.84 42.26,35.56 C41.86,35.28 41.44,35.09 41,34.99 C40.56,34.89 40.26,34.94 40.1,35.14 C39.94,35.42 39.78,35.68 39.62,35.92 C39.46,36.16 39.22,36.44 38.9,36.76 C38.02,38 37.09,39.29 36.11,40.63 C35.13,41.97 34.11,43.23 33.05,44.41 C31.99,45.59 30.9,46.64 29.78,47.56 C28.66,48.48 27.5,49.14 26.3,49.54 L26.3,49.54 L25.7,49.54 C25.82,49.46 25.92,49.24 26,48.88 C26.16,48.04 26.47,47.04 26.93,45.88 C27.39,44.72 27.96,43.56 28.64,42.4 L28.64,42.4 L28.76,42.4 C30.28,39.28 31.88,36.36 33.56,33.64 C35.24,30.92 36.92,28.3 38.6,25.78 L38.6,25.78 L38.54,25.84 L40.64,22.54 C41.52,21.18 42.45,19.73 43.43,18.19 C44.41,16.65 45.33,15.18 46.19,13.78 C47.05,12.38 47.8,11.12 48.44,10 C49.08,8.88 49.52,8.08 49.76,7.6 C50.2,6.72 50.24,5.8 49.88,4.84 C49.52,3.88 48.98,3.05 48.26,2.35 C47.54,1.65 46.74,1.13 45.86,0.79 C44.98,0.45 44.24,0.44 43.64,0.76 C43.16,1.92 42.59,3.21 41.93,4.63 C41.27,6.05 40.53,7.53 39.71,9.07 C38.89,10.61 38.01,12.18 37.07,13.78 C36.13,15.38 35.16,16.92 34.16,18.4 L34.16,18.4 L31.88,21.88 L31.34,22.66 C30.78,21.74 29.96,21.08 28.88,20.68 C28.32,20.52 27.8,20.4 27.32,20.32 C26.84,20.24 26.34,20.2 25.82,20.2 C24.06,20.2 22.29,20.58 20.51,21.34 C18.73,22.1 16.98,23.12 15.26,24.4 C13.54,25.68 11.91,27.14 10.37,28.78 C8.83,30.42 7.42,32.12 6.14,33.88 C4.86,35.64 3.76,37.4 2.84,39.16 C1.92,40.92 1.26,42.54 0.86,44.02 C0.66,44.58 0.48,45.3 0.32,46.18 C0.2,47.14 0.17,48.17 0.23,49.27 C0.29,50.37 0.54,51.4 0.98,52.36 C1.42,53.32 2.09,54.15 2.99,54.85 C3.89,55.55 5.1,55.98 6.62,56.14 C8.3,56.1 10.06,55.47 11.9,54.25 C13.74,53.03 15.56,51.58 17.36,49.9 C17.16,51.7 17.45,53.2 18.23,54.4 C19.01,55.6 20.36,56.28 22.28,56.44 Z M11.54,48.64 C10.9,48.8 10.4,48.84 10.04,48.76 C9.68,48.68 9.41,48.5 9.23,48.22 C9.05,47.94 8.96,47.6 8.96,47.2 C8.96,46.8 9,46.38 9.08,45.94 C9.16,45.3 9.3,44.65 9.5,43.99 C9.7,43.33 9.9,42.78 10.1,42.34 C10.78,40.78 11.71,39.04 12.89,37.12 C14.07,35.2 15.38,33.4 16.82,31.72 C18.26,30.04 19.76,28.65 21.32,27.55 C22.88,26.45 24.4,25.92 25.88,25.96 C26.56,26.04 27.03,26.3 27.29,26.74 C27.55,27.18 27.72,27.7 27.8,28.3 C26.12,30.94 24.58,33.6 23.18,36.28 L23.18,36.28 L22.16,38.32 C21.44,39.24 20.59,40.27 19.61,41.41 C18.63,42.55 17.64,43.63 16.64,44.65 C15.64,45.67 14.68,46.55 13.76,47.29 C12.84,48.03 12.1,48.48 11.54,48.64 Z M56.72,56.44 C57.52,56.48 58.3,56.39 59.06,56.17 C59.82,55.95 60.53,55.67 61.19,55.33 C61.85,54.99 62.45,54.63 62.99,54.25 C63.53,53.87 63.98,53.52 64.34,53.2 C66.62,51.36 68.69,49.29 70.55,46.99 C72.41,44.69 74.2,42.36 75.92,40 L75.92,40 L75.92,39.94 L77.66,37.54 C77.9,37.26 77.9,36.93 77.66,36.55 C77.42,36.17 77.1,35.84 76.7,35.56 C76.3,35.28 75.88,35.09 75.44,34.99 C75,34.89 74.7,34.94 74.54,35.14 C74.38,35.42 74.22,35.68 74.06,35.92 C73.9,36.16 73.66,36.44 73.34,36.76 C72.46,38 71.53,39.29 70.55,40.63 C69.57,41.97 68.55,43.23 67.49,44.41 C66.43,45.59 65.34,46.64 64.22,47.56 C63.1,48.48 61.94,49.14 60.74,49.54 L60.74,49.54 L60.32,49.54 C60.36,49.5 60.41,49.46 60.47,49.42 C60.53,49.38 60.56,49.32 60.56,49.24 C60.64,48.72 60.83,48.09 61.13,47.35 C61.43,46.61 61.78,45.82 62.18,44.98 C62.58,44.14 63.01,43.28 63.47,42.4 C63.93,41.52 64.38,40.7 64.82,39.94 C65.02,39.58 65.22,39.23 65.42,38.89 C65.62,38.55 65.8,38.24 65.96,37.96 C66.2,37.4 66.27,36.82 66.17,36.22 C66.07,35.62 65.86,35.03 65.54,34.45 C65.22,33.87 64.82,33.34 64.34,32.86 C63.86,32.38 63.34,31.96 62.78,31.6 C63.06,31.72 63.39,31.78 63.77,31.78 C64.15,31.78 64.52,31.75 64.88,31.69 C65.24,31.63 65.55,31.53 65.81,31.39 C66.07,31.25 66.22,31.06 66.26,30.82 C66.5,29.78 66.65,28.73 66.71,27.67 C66.77,26.61 66.71,25.61 66.53,24.67 C66.35,23.73 66.01,22.91 65.51,22.21 C65.01,21.51 64.28,21 63.32,20.68 C62.76,20.52 62.24,20.4 61.76,20.32 C61.28,20.24 60.78,20.2 60.26,20.2 C58.5,20.2 56.73,20.58 54.95,21.34 C53.17,22.1 51.42,23.12 49.7,24.4 C47.98,25.68 46.35,27.14 44.81,28.78 C43.27,30.42 41.86,32.12 40.58,33.88 C39.3,35.64 38.2,37.4 37.28,39.16 C36.36,40.92 35.7,42.54 35.3,44.02 C35.1,44.58 34.92,45.3 34.76,46.18 C34.64,47.14 34.61,48.17 34.67,49.27 C34.73,50.37 34.98,51.4 35.42,52.36 C35.86,53.32 36.53,54.15 37.43,54.85 C38.33,55.55 39.54,55.98 41.06,56.14 C42.74,56.1 44.5,55.47 46.34,54.25 C48.18,53.03 50,51.58 51.8,49.9 C51.6,51.7 51.89,53.2 52.67,54.4 C53.45,55.6 54.8,56.28 56.72,56.44 Z M45.98,48.64 C45.34,48.8 44.84,48.84 44.48,48.76 C44.12,48.68 43.85,48.5 43.67,48.22 C43.49,47.94 43.4,47.6 43.4,47.2 C43.4,46.8 43.44,46.38 43.52,45.94 C43.6,45.3 43.74,44.65 43.94,43.99 C44.14,43.33 44.34,42.78 44.54,42.34 C45.22,40.78 46.15,39.04 47.33,37.12 C48.51,35.2 49.82,33.4 51.26,31.72 C52.7,30.04 54.2,28.65 55.76,27.55 C57.32,26.45 58.84,25.92 60.32,25.96 C60.8,26 61.18,26.14 61.46,26.38 C61.74,26.62 61.94,26.93 62.06,27.31 C62.18,27.69 62.24,28.1 62.24,28.54 C62.24,28.98 62.22,29.4 62.18,29.8 C62.14,29.96 62.13,30.12 62.15,30.28 C62.17,30.44 62.16,30.58 62.12,30.7 C62.04,30.94 62.1,31.16 62.3,31.36 C61.74,31.04 61.19,30.82 60.65,30.7 C60.11,30.58 59.64,30.62 59.24,30.82 L59.24,30.82 L59.36,31.78 C59.16,32.58 58.81,33.55 58.31,34.69 C57.81,35.83 57.26,37 56.66,38.2 C55.98,39.12 55.15,40.16 54.17,41.32 C53.19,42.48 52.19,43.57 51.17,44.59 C50.15,45.61 49.18,46.5 48.26,47.26 C47.34,48.02 46.58,48.48 45.98,48.64 Z M90.98,21.46 C91.54,20.18 92.11,19.06 92.69,18.1 C93.27,17.14 93.84,16.2 94.4,15.28 C94.96,14.36 95.51,13.46 96.05,12.58 C96.59,11.7 97.08,10.68 97.52,9.52 C97.6,9.16 97.45,8.57 97.07,7.75 C96.69,6.93 96.21,6.11 95.63,5.29 C95.05,4.47 94.43,3.75 93.77,3.13 C93.11,2.51 92.54,2.24 92.06,2.32 L92.06,2.32 L90.86,3.58 C90.62,4.58 90.3,5.62 89.9,6.7 C89.5,7.78 89.08,8.84 88.64,9.88 C88.2,10.92 87.81,11.92 87.47,12.88 C87.13,13.84 86.86,14.72 86.66,15.52 C86.58,15.96 86.67,16.5 86.93,17.14 C87.19,17.78 87.54,18.4 87.98,19 C88.42,19.6 88.91,20.13 89.45,20.59 C89.99,21.05 90.5,21.34 90.98,21.46 Z M70.82,56.44 C71.54,56.44 72.28,56.33 73.04,56.11 C73.8,55.89 74.52,55.62 75.2,55.3 C75.88,54.98 76.51,54.63 77.09,54.25 C77.67,53.87 78.16,53.54 78.56,53.26 C81.08,51.22 83.58,48.86 86.06,46.18 C88.54,43.5 90.78,40.86 92.78,38.26 L92.78,38.26 L92.72,38.38 C92.96,38.1 93,37.75 92.84,37.33 C92.68,36.91 92.43,36.53 92.09,36.19 C91.75,35.85 91.38,35.61 90.98,35.47 C90.58,35.33 90.26,35.38 90.02,35.62 L90.02,35.62 L88.94,37.06 C87.94,38.26 86.9,39.51 85.82,40.81 C84.74,42.11 83.63,43.34 82.49,44.5 C81.35,45.66 80.16,46.69 78.92,47.59 C77.68,48.49 76.42,49.14 75.14,49.54 L75.14,49.54 L74.72,49.54 C74.48,49.54 74.48,49.25 74.72,48.67 C74.96,48.09 75.35,47.32 75.89,46.36 C76.43,45.4 77.09,44.3 77.87,43.06 C78.65,41.82 79.47,40.55 80.33,39.25 C81.19,37.95 82.05,36.67 82.91,35.41 C83.77,34.15 84.56,33 85.28,31.96 C85.56,31.52 85.88,31.04 86.24,30.52 C86.6,30 86.92,29.54 87.2,29.14 C87.48,28.74 87.7,28.42 87.86,28.18 C88.02,27.94 88.06,27.86 87.98,27.94 C88.5,27.02 88.64,26.07 88.4,25.09 C88.16,24.11 87.74,23.25 87.14,22.51 C86.54,21.77 85.84,21.21 85.04,20.83 C84.24,20.45 83.54,20.4 82.94,20.68 L82.94,20.68 L82.16,21.4 C81.48,22.8 80.65,24.35 79.67,26.05 C78.69,27.75 77.68,29.5 76.64,31.3 C75.04,33.94 73.49,36.58 71.99,39.22 C70.49,41.86 69.34,44.18 68.54,46.18 L68.54,46.18 L68.6,46.12 C68,47.48 67.56,48.84 67.28,50.2 C67,51.96 67.13,53.43 67.67,54.61 C68.21,55.79 69.26,56.4 70.82,56.44 Z M89.96,56.8 C91.52,56.88 93.01,56.65 94.43,56.11 C95.85,55.57 97.13,54.78 98.27,53.74 C99.41,52.7 100.36,51.43 101.12,49.93 C101.88,48.43 102.38,46.78 102.62,44.98 L102.62,44.98 L103.04,41.38 C103.12,40.5 103.2,39.63 103.28,38.77 C103.36,37.91 103.48,37.06 103.64,36.22 C103.92,34.7 104.33,33.16 104.87,31.6 C105.41,30.04 106.2,28.56 107.24,27.16 L107.24,27.16 L108.2,25.96 C108.6,25.44 108.97,24.99 109.31,24.61 C109.65,24.23 110.22,23.7 111.02,23.02 L111.02,23.02 L110.84,23.08 C111.68,22.48 112.06,21.8 111.98,21.04 C111.9,20.28 111.59,19.55 111.05,18.85 C110.51,18.15 109.84,17.51 109.04,16.93 C108.24,16.35 107.56,15.9 107,15.58 C105,17.22 103.45,18.66 102.35,19.9 C101.25,21.14 100.28,22.3 99.44,23.38 C99.16,23.7 98.9,24.02 98.66,24.34 C98.42,24.66 98.14,24.98 97.82,25.3 C96.3,27.06 94.83,28.88 93.41,30.76 C91.99,32.64 90.6,34.54 89.24,36.46 L89.24,36.46 L87.56,38.62 C86.24,39.58 85.1,40.86 84.14,42.46 C83.18,44.06 82.54,45.7 82.22,47.38 C82.02,48.58 82.02,49.72 82.22,50.8 C82.42,51.88 82.83,52.84 83.45,53.68 C84.07,54.52 84.92,55.22 86,55.78 C87.08,56.34 88.4,56.68 89.96,56.8 Z M91.82,51.16 C91.34,51.44 90.8,51.54 90.2,51.46 C89.64,51.38 89.08,51.19 88.52,50.89 C87.96,50.59 87.54,50.12 87.26,49.48 C87.18,49.2 87.12,48.91 87.08,48.61 C87.04,48.31 87.04,48.06 87.08,47.86 C87.2,47.34 87.5,46.83 87.98,46.33 C88.46,45.83 89,45.44 89.6,45.16 C90.2,44.88 90.78,44.79 91.34,44.89 C91.9,44.99 92.3,45.36 92.54,46 C92.94,45.64 93.23,45.07 93.41,44.29 C93.59,43.51 93.7,42.69 93.74,41.83 C93.78,40.97 93.76,40.15 93.68,39.37 C93.6,38.59 93.52,38.04 93.44,37.72 L93.44,37.72 L93.5,37.66 L96.02,34.3 C95.94,34.62 95.86,34.95 95.78,35.29 C95.7,35.63 95.64,35.96 95.6,36.28 C95.4,37.24 95.27,38.18 95.21,39.1 C95.15,40.02 95.08,40.9 95,41.74 C94.92,43.34 94.8,44.86 94.64,46.3 C94.52,47.02 94.33,47.7 94.07,48.34 C93.81,48.98 93.49,49.54 93.11,50.02 C92.73,50.5 92.3,50.88 91.82,51.16 Z M91.64,81.94 C96.16,81.94 100.12,80.92 103.52,78.88 C106.92,76.84 110.1,73.98 113.06,70.3 L113.06,70.3 L116.12,73 L118.34,75.04 C118.58,75.2 118.97,75.24 119.51,75.16 C120.05,75.08 120.65,74.9 121.31,74.62 C121.97,74.34 122.63,74.01 123.29,73.63 C123.95,73.25 124.5,72.84 124.94,72.4 C125.38,71.96 125.67,71.52 125.81,71.08 C125.95,70.64 125.82,70.26 125.42,69.94 C125.26,69.82 125.12,69.68 125,69.52 C124.88,69.36 124.76,69.22 124.64,69.1 L124.64,69.1 L124.64,69.22 C123.52,68.22 122.4,67.25 121.28,66.31 C120.16,65.37 119,64.48 117.8,63.64 C118.96,61.84 120.11,59.94 121.25,57.94 C122.39,55.94 123.56,53.82 124.76,51.58 L124.76,51.58 L137.6,27.88 C138,26.96 138.03,26.03 137.69,25.09 C137.35,24.15 136.82,23.32 136.1,22.6 C135.38,21.88 134.59,21.35 133.73,21.01 C132.87,20.67 132.14,20.64 131.54,20.92 C130.38,23.6 129.21,26.19 128.03,28.69 C126.85,31.19 125.7,33.54 124.58,35.74 L124.58,35.74 L123.56,37.06 L123.62,37.06 C122.74,38.3 121.82,39.57 120.86,40.87 C119.9,42.17 118.9,43.39 117.86,44.53 C116.82,45.67 115.74,46.69 114.62,47.59 C113.5,48.49 112.36,49.14 111.2,49.54 L111.2,49.54 L110.66,49.54 C110.66,49.54 110.74,49.38 110.9,49.06 C111.02,48.22 111.39,47.09 112.01,45.67 C112.63,44.25 113.36,42.74 114.2,41.14 C115.04,39.54 115.93,37.93 116.87,36.31 C117.81,34.69 118.68,33.22 119.48,31.9 L119.48,31.9 L119.42,31.96 C119.98,31.04 120.46,30.22 120.86,29.5 C121.26,28.78 121.56,28.24 121.76,27.88 C122.16,26.96 122.21,26.02 121.91,25.06 C121.61,24.1 121.13,23.24 120.47,22.48 C119.81,21.72 119.07,21.16 118.25,20.8 C117.43,20.44 116.72,20.4 116.12,20.68 L116.12,20.68 L115.4,21.52 C114.88,22.76 114.18,24.31 113.3,26.17 C112.42,28.03 111.48,29.98 110.48,32.02 C109.88,33.3 109.26,34.59 108.62,35.89 C107.98,37.19 107.36,38.45 106.76,39.67 C106.16,40.89 105.62,42.07 105.14,43.21 C104.66,44.35 104.26,45.36 103.94,46.24 C103.78,46.68 103.65,47.16 103.55,47.68 C103.45,48.2 103.36,48.68 103.28,49.12 C102.96,51.12 103.09,52.82 103.67,54.22 C104.25,55.62 105.4,56.36 107.12,56.44 C107.88,56.44 108.64,56.33 109.4,56.11 C110.16,55.89 110.88,55.62 111.56,55.3 C112.24,54.98 112.86,54.63 113.42,54.25 C113.98,53.87 114.44,53.52 114.8,53.2 L114.8,53.2 L115.88,52.3 C115.12,53.62 114.37,54.91 113.63,56.17 C112.89,57.43 112.14,58.7 111.38,59.98 C110.62,59.66 109.87,59.37 109.13,59.11 C108.39,58.85 107.62,58.63 106.82,58.45 C106.02,58.27 105.13,58.13 104.15,58.03 C103.17,57.93 102.06,57.88 100.82,57.88 C98.58,57.88 96.38,58.25 94.22,58.99 C92.06,59.73 90.09,60.77 88.31,62.11 C86.53,63.45 85.03,65.03 83.81,66.85 C82.59,68.67 81.8,70.64 81.44,72.76 C81.16,74.44 81.27,75.86 81.77,77.02 C82.27,78.18 83.01,79.12 83.99,79.84 C84.97,80.56 86.13,81.09 87.47,81.43 C88.81,81.77 90.2,81.94 91.64,81.94 Z M91.46,77.14 C90.78,77.14 90.08,77.07 89.36,76.93 C88.64,76.79 88,76.55 87.44,76.21 C86.88,75.87 86.44,75.41 86.12,74.83 C85.8,74.25 85.72,73.5 85.88,72.58 C86.04,71.26 86.61,70.12 87.59,69.16 C88.57,68.2 89.73,67.4 91.07,66.76 C92.41,66.12 93.86,65.65 95.42,65.35 C96.98,65.05 98.42,64.9 99.74,64.9 C102.46,64.94 104.84,65.42 106.88,66.34 C105.68,67.94 104.45,69.4 103.19,70.72 C101.93,72.04 100.66,73.18 99.38,74.14 C98.1,75.1 96.8,75.84 95.48,76.36 C94.16,76.88 92.82,77.14 91.46,77.14 Z" class="fill-current text-base-content" fill-rule="nonzero"></path>
  <path d="M160.675,56.05 C166.241667,56.05 170.366667,54.7 173.05,52 C175.733333,49.3 177.075,45.0166667 177.075,39.15 L177.075,39.15 L177.075,17.3 L167.325,17.3 L167.325,37.8 C167.325,38.9 167.283333,40.025 167.2,41.175 C167.116667,42.325 166.858333,43.3666667 166.425,44.3 C165.991667,45.2333333 165.333333,45.9916667 164.45,46.575 C163.566667,47.1583333 162.308333,47.45 160.675,47.45 C159.041667,47.45 157.775,47.1583333 156.875,46.575 C155.975,45.9916667 155.316667,45.2333333 154.9,44.3 C154.483333,43.3666667 154.233333,42.325 154.15,41.175 C154.066667,40.025 154.025,38.9 154.025,37.8 L154.025,37.8 L154.025,17.3 L144.225,17.3 L144.225,39.15 C144.225,45.0166667 145.575,49.3 148.275,52 C150.975,54.7 155.108333,56.05 160.675,56.05 Z M194.775,55 L194.775,17.3 L184.975,17.3 L184.975,55 L194.775,55 Z" fill-rule="nonzero" class="fill-current text-base-content"></path>
</svg>
