<svg xmlns="http://www.w3.org/2000/svg" aria-hidden="true" focusable="false" width="15000" height="15000" style=""><rect id="backgroundrect" width="100%" height="100%" x="0" y="0" fill="none" stroke="none"/><g class="currentLayer" style=""><title>Layer 1</title><path fill="#000000" stroke="#000000" stroke-miterlimit="10" stroke-width="280" d="M5312.500043869019,10758.360626220703 c-90,0 -135,-120 -135,-361 V4446.360626220703 c0,-115 -23,-169 -70,-162 l-431,108 c-79,7 -118,-72 -118,-237 v-517 c0,-143 43,-224 129,-242 l1422,-366 c11,-3 27,-5 48,-5 c79,0 118,84 118,253 v7120 c0,241 -47,361 -140,361 zm3683,11 c-144,0 -268,-10 -374,-30 s-216,-65 -331,-135 s-209,-166 -283,-288 s-134,-293 -180,-512 s-70,-479 -70,-781 V6261.360626220703 c0,-72 -20,-108 -59,-108 h-334 c-90,0 -135,-86 -135,-258 v-291 c0,-176 45,-264 135,-264 h334 c39,0 59,-48 59,-145 l97,-2095 c11,-190 57,-285 140,-285 h539 c90,0 135,95 135,285 v2095 c0,97 21,145 65,145 h687 c90,0 135,88 135,264 v291 c0,172 -45,258 -135,258 h-689 c-25,0 -42,6 -51,19 c-9,12 -13,42 -13,89 v2779 c0,208 13,382 40,520 s66,240 118,304 s104,108 156,129 c52,22 116,32 191,32 h382 c97,0 145,67 145,199 v323 c0,147 -52,221 -156,221 zm2067,646 c82,0 154,-67 215,-202 s92,-326 92,-574 c0,-58 -36,-257 -108,-598 l-1056,-4389 c-7,-50 -11,-90 -11,-119 c0,-129 27,-194 81,-194 h652 c50,0 91,17 124,51 s58,103 75,207 l700,3705 c14,43 23,65 27,65 c14,0 22,-20 22,-59 l549,-3695 c14,-108 37,-180 67,-218 s69,-57 116,-57 h452 c61,0 92,70 92,210 c0,32 -4,74 -11,124 l-959,4993 c-75,413 -158,729 -248,948 s-190,368 -302,447 a776,776 0 0 1 -442,124 h-54 c-291,0 -488,-77 -592,-232 c-29,-32 -43,-115 -43,-248 c0,-266 43,-399 129,-399 c7,0 72,18 194,54 c124,38 203,56 239,56 zm-8460,-647 c-90,0 -135,-120 -135,-361 V4456.360626220703 c0,-115 -23,-169 -70,-162 l-431,108 c-79,7 -118,-72 -118,-237 v-517 c0,-143 43,-224 129,-242 l1423,-367 c11,-3 27,-5 48,-5 c79,0 118,84 118,253 v7120 c0,241 -47,361 -140,361 z" id="svg_1" class="" stroke-opacity="1" fill-opacity="1"/></g></svg>