<svg width="453.09800000000007" height="453.09800000000007" xmlns="http://www.w3.org/2000/svg" xml:space="preserve" version="1.1">
 <g>
  <title>Layer 1</title>
  <g id="svg_3"/>
  <g id="svg_4"/>
  <g id="svg_5"/>
  <g id="svg_6"/>
  <g id="svg_7"/>
  <g id="svg_8"/>
  <g id="svg_9"/>
  <g id="svg_10"/>
  <g id="svg_11"/>
  <g id="svg_12"/>
  <g id="svg_13"/>
  <g id="svg_14"/>
  <g id="svg_15"/>
  <g id="svg_16"/>
  <g id="svg_17"/>
  <g stroke="null" id="svg_1">
   <g stroke="null" id="svg_2" fill="none" fill-rule="evenodd">
    <path stroke="null" id="svg_18" d="m246.68068,48.75896c90.09614,0 134.86832,42.88081 134.86832,111.37863c0,51.23398 -31.50606,84.64661 -74.06721,90.21602c35.92809,7.24004 56.93087,27.84513 60.80109,68.4978l0.56008,7.47606l0.48885,6.98887l0.42245,6.53772l0.29341,4.92955l0.31515,5.81638l0.16343,3.31938l0.23295,5.27316l0.1879,4.98046l0.0931,2.86276l0.12586,4.58706l0.10859,5.24486l0.03937,2.53439l0.07102,7.3443l0.02282,7.66375l0.00127,4.58217l-92.91034,0l0.00466,-1.91113l0,0l0.03308,-3.71153l0,0l0.05546,-3.61581l0.16071,-8.75788l0.04064,-2.93604l0.03183,-4.60384l0,0l-0.00435,-2.94406l-0.02706,-3.0875l-0.03761,-2.42327l-0.07644,-3.39256l-0.11016,-3.59773l-0.14787,-3.82537l-0.1896,-4.07545l-0.11169,-2.13854l-0.19006,-3.34169l-0.2186,-3.51077l-0.33876,-4.96044l-0.29174,-3.94217c-0.08378,-1.21593 -0.18079,-2.40318 -0.29101,-3.56237l-0.23806,-2.28115c-3.06823,-26.92936 -13.74955,-37.93571 -32.04396,-41.60675l-1.54216,-0.28912c-1.03985,-0.18167 -2.10319,-0.34145 -3.19004,-0.48079l-1.64789,-0.19387c-0.27759,-0.02981 -0.55665,-0.05841 -0.83717,-0.08579l-1.70077,-0.14997l0,0l-1.736,-0.12209l0,0l-1.77125,-0.09531l0,0l-1.7869,-0.06901l-1.82138,-0.04495l-1.85587,-0.02197l0,0l-147.06978,-0.0027l0,-72.95219l150.55094,0c2.46164,0 4.84714,-0.04668 7.1565,-0.1419l2.28398,-0.11148l0,0l2.23323,-0.14428l0,0l2.18246,-0.17746c0.35952,-0.03237 0.71692,-0.06613 1.07221,-0.10131l2.10633,-0.22803c1.3873,-0.1634 2.74077,-0.34961 4.06039,-0.55921l1.95407,-0.33199c24.42998,-4.42909 36.64453,-17.39757 36.64453,-42.7044c0,-28.40074 -19.89726,-45.6132 -59.6937,-45.6132l-150.55094,0l0,-71.38622l167.13168,0zm-68.89169,295.84834c12.18991,0 17.29009,6.76842 19.10701,13.24691l0.23971,0.9316l0,0l0.19672,0.92288l0.12811,0.72886l0.05476,0.36044l0.09172,0.71145l0.06907,0.69682l0.02646,0.34218l0.03754,0.67037l0.01142,0.32759l0.00894,0.63851l0,34.80736l-118.21147,0l0,-54.38496l98.24,0z" fill="#121212" fill-rule="nonzero"/>
   </g>
  </g>
 </g>

</svg>