<svg width="273" height="273" viewBox="0 0 273 273" fill="none" xmlns="http://www.w3.org/2000/svg">
<path d="M19.4033 136.5C19.4033 182.851 46.3401 222.908 85.4006 241.89L29.5417 88.8431C23.0442 103.407 19.4033 119.523 19.4033 136.5Z" fill="#464342"/>
<path d="M215.557 130.591C215.557 116.119 210.358 106.096 205.9 98.2951C199.964 88.6492 194.4 80.4806 194.4 70.8347C194.4 60.0702 202.564 50.05 214.064 50.05C214.583 50.05 215.075 50.1146 215.581 50.1436C194.748 31.0568 166.991 19.4032 136.504 19.4032C95.5945 19.4032 59.6023 40.3929 38.6638 72.185C41.4112 72.2675 44.0004 72.3254 46.1996 72.3254C58.4481 72.3254 77.4079 70.8392 77.4079 70.8392C83.7204 70.4671 84.4646 79.7386 78.1588 80.4851C78.1588 80.4851 71.8151 81.2315 64.7561 81.6014L107.4 208.442L133.026 131.585L114.782 81.597C108.476 81.2271 102.502 80.4806 102.502 80.4806C96.1917 80.1107 96.9314 70.4626 103.242 70.8347C103.242 70.8347 122.58 72.3209 134.087 72.3209C146.333 72.3209 165.295 70.8347 165.295 70.8347C171.612 70.4626 172.354 79.7342 166.046 80.4806C166.046 80.4806 159.689 81.2271 152.643 81.597L194.961 207.477L206.642 168.446C211.704 152.249 215.557 140.615 215.557 130.591Z" fill="#464342"/>
<path d="M138.559 146.743L103.425 248.837C113.915 251.921 125.009 253.608 136.505 253.608C150.141 253.608 163.219 251.25 175.391 246.97C175.077 246.469 174.792 245.936 174.558 245.357L138.559 146.743Z" fill="#464342"/>
<path d="M239.256 80.318C239.76 84.048 240.045 88.0521 240.045 92.3592C240.045 104.242 237.826 117.6 231.141 134.303L195.372 237.721C230.185 217.42 253.601 179.703 253.601 136.502C253.604 116.143 248.403 96.9983 239.256 80.318Z" fill="#464342"/>
<path d="M136.504 0C61.2378 0 0 61.2334 0 136.5C0 211.776 61.2378 273.007 136.504 273.007C211.769 273.007 273.016 211.776 273.016 136.5C273.013 61.2334 211.769 0 136.504 0ZM136.504 266.75C64.6893 266.75 6.25904 208.32 6.25904 136.5C6.25904 64.6849 64.6871 6.25904 136.504 6.25904C208.317 6.25904 266.743 64.6849 266.743 136.5C266.743 208.32 208.317 266.75 136.504 266.75Z" fill="#464342"/>
</svg>
