<?xml version="1.0" encoding="UTF-8" standalone="no" ?>
<!DOCTYPE svg PUBLIC "-//W3C//DTD SVG 1.1//EN" "http://www.w3.org/Graphics/SVG/1.1/DTD/svg11.dtd">
<svg xmlns="http://www.w3.org/2000/svg" xmlns:xlink="http://www.w3.org/1999/xlink" version="1.1" width="400" height="400" viewBox="0 0 400 400" xml:space="preserve">
<desc>Created with Fabric.js 3.6.3</desc>
<defs>
</defs>
<g transform="matrix(1 0 0 1 201 198.5)"  >
<g style=""   >
		<g transform="matrix(1 0 0 1 17.31 15.88)"  >
<linearGradient id="SVGID_linearGradient-1_5" gradientUnits="objectBoundingBox" gradientTransform="matrix(1 0 0 1 145.31 183.38)"  x1="0.268242921" y1="0.482236445" x2="0.675758137" y2="0.55339338">
<stop offset="0%" style="stop-color:rgb(255,101,51);stop-opacity: 1"/>
<stop offset="15.7%" style="stop-color:rgb(255,86,51);stop-opacity: 1"/>
<stop offset="43.4%" style="stop-color:rgb(255,67,51);stop-opacity: 1"/>
<stop offset="71.4%" style="stop-color:rgb(255,55,51);stop-opacity: 1"/>
<stop offset="100%" style="stop-color:rgb(255,51,51);stop-opacity: 1"/>
</linearGradient>
<path style="stroke: none; stroke-width: 1; stroke-dasharray: none; stroke-linecap: butt; stroke-dashoffset: 0; stroke-linejoin: miter; stroke-miterlimit: 4; fill: url(#SVGID_linearGradient-1_5); fill-rule: nonzero; opacity: 1;"  transform=" translate(-145.31, -183.38)" d="M 256 110.132723 C 256 90.4494279 250.844851 71.9963387 241.76476 56.0036613 C 217.687872 31.2237986 165.316247 25.4828375 152.311213 55.8864989 C 138.954691 87.0517162 174.747826 121.731808 190.389016 118.97849 C 210.306636 115.463616 186.874142 69.7702517 186.874142 69.7702517 C 217.336384 127.179863 210.306636 109.605492 155.240275 162.328604 C 100.173913 215.051716 43.9359268 326.297483 35.7345538 330.983982 C 35.3830664 331.218307 35.0315789 331.39405 34.6215103 331.569794 L 250.610526 331.569794 C 254.418307 331.569794 256.878719 327.527689 255.179863 324.129977 L 198.707551 212.356979 C 197.477346 209.955149 198.356064 206.967506 200.699314 205.620137 C 233.73913 186.639817 256 151.022426 256 110.132723 Z" stroke-linecap="round" />
</g>
		<g transform="matrix(1 0 0 1 17.31 15.88)"  >
<linearGradient id="SVGID_linearGradient-2_6" gradientUnits="objectBoundingBox" gradientTransform="matrix(1 0 0 1 145.31 183.38)"  x1="0.204503837" y1="0.38133393499999996" x2="0.9348584280000001" y2="0.8043223820000001">
<stop offset="0%" style="stop-color:rgb(191,51,56);stop-opacity: 1"/>
<stop offset="100%" style="stop-color:rgb(255,51,51);stop-opacity: 1"/>
</linearGradient>
<path style="stroke: none; stroke-width: 1; stroke-dasharray: none; stroke-linecap: butt; stroke-dashoffset: 0; stroke-linejoin: miter; stroke-miterlimit: 4; fill: url(#SVGID_linearGradient-2_6); fill-rule: nonzero; opacity: 1;"  transform=" translate(-145.31, -183.38)" d="M 256 110.132723 C 256 90.4494279 250.844851 71.9963387 241.76476 56.0036613 C 217.687872 31.2237986 165.316247 25.4828375 152.311213 55.8864989 C 138.954691 87.0517162 174.747826 121.731808 190.389016 118.97849 C 210.306636 115.463616 186.874142 69.7702517 186.874142 69.7702517 C 217.336384 127.179863 210.306636 109.605492 155.240275 162.328604 C 100.173913 215.051716 43.9359268 326.297483 35.7345538 330.983982 C 35.3830664 331.218307 35.0315789 331.39405 34.6215103 331.569794 L 250.610526 331.569794 C 254.418307 331.569794 256.878719 327.527689 255.179863 324.129977 L 198.707551 212.356979 C 197.477346 209.955149 198.356064 206.967506 200.699314 205.620137 C 233.73913 186.639817 256 151.022426 256 110.132723 Z" stroke-linecap="round" />
</g>
		<g transform="matrix(1 0 0 1 -11.55 32.85)"  >
<linearGradient id="SVGID_linearGradient-3_7" gradientUnits="objectBoundingBox" gradientTransform="matrix(1 0 0 1 116.45 200.35)"  x1="0.32292611299999996" y1="0.39496861000000005" x2="0.455563705" y2="0.489139013">
<stop offset="0%" style="stop-color:rgb(255,101,51);stop-opacity: 1"/>
<stop offset="15.7%" style="stop-color:rgb(255,86,51);stop-opacity: 1"/>
<stop offset="43.4%" style="stop-color:rgb(255,67,51);stop-opacity: 1"/>
<stop offset="71.4%" style="stop-color:rgb(255,55,51);stop-opacity: 1"/>
<stop offset="100%" style="stop-color:rgb(255,51,51);stop-opacity: 1"/>
</linearGradient>
<path style="stroke: none; stroke-width: 1; stroke-dasharray: none; stroke-linecap: butt; stroke-dashoffset: 0; stroke-linejoin: miter; stroke-miterlimit: 4; fill: url(#SVGID_linearGradient-3_7); fill-rule: nonzero; opacity: 1;"  transform=" translate(-116.45, -200.35)" d="M 35.7345538 330.983982 C 43.9359268 326.297483 100.173913 214.993135 155.240275 162.270023 C 210.306636 109.546911 217.336384 127.121281 186.874142 69.7116705 C 186.874142 69.7116705 70.2974828 233.153318 28.1189931 313.995423" stroke-linecap="round" />
</g>
		<g transform="matrix(1 0 0 1 -3.84 -30.1)"  >
<linearGradient id="SVGID_linearGradient-4_8" gradientUnits="objectBoundingBox" gradientTransform="matrix(1 0 0 1 124.16 137.4)"  x1="0.515641026" y1="0.783444231" x2="0.485176441" y2="0.41662827900000005">
<stop offset="0%" style="stop-color:rgb(255,101,51);stop-opacity: 1"/>
<stop offset="15.7%" style="stop-color:rgb(255,86,51);stop-opacity: 1"/>
<stop offset="43.4%" style="stop-color:rgb(255,67,51);stop-opacity: 1"/>
<stop offset="71.4%" style="stop-color:rgb(255,55,51);stop-opacity: 1"/>
<stop offset="100%" style="stop-color:rgb(255,51,51);stop-opacity: 1"/>
</linearGradient>
<path style="stroke: none; stroke-width: 1; stroke-dasharray: none; stroke-linecap: butt; stroke-dashoffset: 0; stroke-linejoin: miter; stroke-miterlimit: 4; fill: url(#SVGID_linearGradient-4_8); fill-rule: nonzero; opacity: 1;"  transform=" translate(-124.16, -137.4)" d="M 52.1372998 184.530892 C 130.870481 39.776659 141.180778 25.1899314 182.187643 25.1899314 C 203.745538 25.1899314 225.479176 34.9144165 239.538673 52.195881 C 220.382609 21.3235698 186.464073 0.644393593 147.624714 0.0585812357 L 13.8837529 0.0585812357 C 11.0718535 0.0585812357 8.78718535 2.34324943 8.78718535 5.15514874 L 8.78718535 274.745995 C 16.7542334 254.183982 30.2864989 224.776201 52.1372998 184.530892 Z" stroke-linecap="round" />
</g>
		<g transform="matrix(1 0 0 1 -7 12.29)"  >
<linearGradient id="SVGID_linearGradient-5_9" gradientUnits="objectBoundingBox" gradientTransform="matrix(1 0 0 1 121 179.79)"  x1="0.402012262" y1="0.472148639" x2="0.539750044" y2="0.5453498760000001">
<stop offset="0%" style="stop-color:rgb(251,176,64);stop-opacity: 1"/>
<stop offset="100%" style="stop-color:rgb(251,136,64);stop-opacity: 1"/>
</linearGradient>
<path style="stroke: none; stroke-width: 1; stroke-dasharray: none; stroke-linecap: butt; stroke-dashoffset: 0; stroke-linejoin: miter; stroke-miterlimit: 4; fill: url(#SVGID_linearGradient-5_9); fill-rule: nonzero; opacity: 1;"  transform=" translate(-121, -179.79)" d="M 155.240275 162.270023 C 100.173913 214.993135 43.9359268 326.297483 35.7345538 330.983982 C 27.5331808 335.670481 13.7665904 336.256293 6.44393593 328.05492 C -1.34736842 319.326316 -13.4736842 305.208238 52.1372998 184.530892 C 130.870481 39.776659 141.180778 25.1899314 182.187643 25.1899314 C 203.745538 25.1899314 225.479176 34.9144165 239.538673 52.195881 C 240.300229 53.426087 241.061785 54.7148741 241.823341 56.0036613 C 217.746453 31.2237986 165.374828 25.4828375 152.369794 55.8864989 C 139.013272 87.0517162 174.806407 121.731808 190.447597 118.97849 C 210.365217 115.463616 186.932723 69.7702517 186.932723 69.7702517 C 217.336384 127.121281 210.306636 109.546911 155.240275 162.270023 Z" stroke-linecap="round" />
</g>
		<g transform="matrix(1 0 0 1 -8.99 10.7)"  >
<linearGradient id="SVGID_linearGradient-6_10" gradientUnits="objectBoundingBox" gradientTransform="matrix(1 0 0 1 119.01 178.2)"  x1="0.552222794" y1="0.05887825420000001" x2="0.409262994" y2="1.2801646199999999">
<stop offset="0%" style="stop-color:rgb(255,255,255);stop-opacity: 1"/>
<stop offset="100%" style="stop-color:rgb(255,255,255);stop-opacity: 0"/>
</linearGradient>
<path style="stroke: none; stroke-width: 1; stroke-dasharray: none; stroke-linecap: butt; stroke-dashoffset: 0; stroke-linejoin: miter; stroke-miterlimit: 4; fill: url(#SVGID_linearGradient-6_10); fill-rule: nonzero; opacity: 0.3;"  transform=" translate(-119.01, -178.2)" d="M 58.5812357 190.974828 C 137.314416 46.220595 147.624714 31.6338673 188.631579 31.6338673 C 206.381693 31.6338673 224.24897 38.2535469 237.839817 50.204119 C 223.78032 34.1528604 202.9254 25.1899314 182.187643 25.1899314 C 141.180778 25.1899314 130.870481 39.776659 52.1372998 184.530892 C -13.4736842 305.208238 -1.34736842 319.326316 6.44393593 328.05492 C 7.55697941 329.285126 8.84576659 330.339588 10.193135 331.218307 C 3.33913043 321.259497 0.292906178 298.119908 58.5812357 190.974828 Z" stroke-linecap="round" />
</g>
</g>
</g>
</svg>