<svg width="32px" height="32px" viewBox="0 0 32 32" xmlns="http://www.w3.org/2000/svg" fill="none"><title>file_type_vite</title><path d="M29.8836 6.146L16.7418 29.6457c-.2714.4851-.9684.488-1.2439.0052L2.0956 6.1482c-.3-.5262.1498-1.1635.746-1.057l13.156 2.3516a.7144.7144 0 00.2537-.0004l12.8808-2.3478c.5942-.1083 1.0463.5241.7515 1.0513z" fill="url(#paint0_linear)"/><path d="M22.2644 2.0069l-9.7253 1.9056a.3571.3571 0 00-.2879.3294l-.5982 10.1038c-.014.238.2045.4227.4367.3691l2.7077-.6248c.2534-.0585.4823.1647.4302.4194l-.8044 3.9393c-.0542.265.1947.4918.4536.4132l1.6724-.5082c.2593-.0787.5084.1487.4536.414l-1.2784 6.1877c-.08.387.4348.598.6495.2662L16.5173 25 24.442 9.1848c.1327-.2648-.096-.5667-.387-.5106l-2.787.5379c-.262.0505-.4848-.1934-.4109-.4497l1.8191-6.306c.074-.2568-.1496-.5009-.4118-.4495z" fill="url(#paint1_linear)"/><defs id="defs50"><linearGradient id="paint0_linear" x1="6.0002" y1="32.9999" x2="235" y2="344" gradientUnits="userSpaceOnUse" gradientTransform="matrix(.07142 0 0 .07142 1.3398 1.8944)"><stop stop-color="#41D1FF" id="stop38"/><stop offset="1" stop-color="#BD34FE" id="stop40"/></linearGradient><linearGradient id="paint1_linear" x1="194.651" y1="8.8182" x2="236.076" y2="292.989" gradientUnits="userSpaceOnUse" gradientTransform="matrix(.07142 0 0 .07142 1.3398 1.8944)"><stop stop-color="#FFEA83" id="stop43"/><stop offset=".0833" stop-color="#FFDD35" id="stop45"/><stop offset="1" stop-color="#FFA800" id="stop47"/></linearGradient></defs></svg>