<svg width="274" height="273" viewBox="0 0 274 273" fill="none" xmlns="http://www.w3.org/2000/svg">
<circle cx="136.924" cy="136.5" r="136.5" fill="url(#paint0_linear_14_230)"/>
<path fill-rule="evenodd" clip-rule="evenodd" d="M51.1238 145.325C51.1238 129.503 58.0223 107.197 72.2181 92.9052C86.4138 78.6137 123.464 70.7893 154.807 87.1906C186.151 103.592 207.105 87.1906 218.381 83.4667C225.103 105.288 223.561 121.673 214.056 135.179C204.551 148.685 169.294 161.893 130.157 140.706C106.568 127.936 80.9019 114.854 51.1238 145.325Z" fill="#F0F8FF"/>
<path fill-rule="evenodd" clip-rule="evenodd" d="M52.7942 188.529C50.2699 177.597 49.6994 166.021 57.6834 155.802C68.8723 141.894 96.8306 137.218 113.72 148.375C130.608 159.531 147.569 166.093 152.83 166.093C154.159 177.26 141.448 192.181 131.61 194.165C121.772 196.148 111.505 195.051 99.6354 190.294C87.7662 185.537 78.746 170.304 52.7942 188.529Z" fill="#F0F8FF"/>
<defs>
<linearGradient id="paint0_linear_14_230" x1="73.5082" y1="-47.4853" x2="122.824" y2="233.933" gradientUnits="userSpaceOnUse">
<stop stop-color="#63B4FD"/>
<stop offset="0.744792" stop-color="#1778D0"/>
</linearGradient>
</defs>
</svg>
