<?xml version="1.0" encoding="UTF-8" standalone="no"?>
<svg width="256px" height="256px" viewBox="0 0 256 256" version="1.1" xmlns="http://www.w3.org/2000/svg" xmlns:xlink="http://www.w3.org/1999/xlink" preserveAspectRatio="xMidYMid">
	<g fill="#DD3735">
		<path d="M255.901586,121.097344 C255.815586,117.813344 255.642586,114.443344 255.469586,111.159344 C255.296586,107.788344 255.210586,104.418344 254.864586,101.048344 C254.259586,96.4673435 253.654586,91.8013435 252.617586,87.3073435 C251.839586,83.5913435 250.543586,80.0483435 249.247586,76.5053435 C247.605586,72.3563435 245.963586,68.1223435 243.889586,64.1473435 C240.518586,57.7523435 236.111586,52.0483435 232.049586,46.0853435 C229.370586,42.2823435 225.914586,39.1713435 223.321586,35.2833435 C221.852586,33.0363435 219.691586,31.1343435 217.531586,29.4063435 C214.074586,26.6413435 210.444586,24.1343435 206.815586,21.7153435 C204.049586,19.8133435 201.284586,17.9993435 198.346586,16.3573435 C196.012586,15.0603435 193.506586,14.0233435 191.086586,12.9003435 C188.321586,11.6033435 185.642586,10.0483435 182.531586,9.44334353 C181.753586,9.27034353 181.062586,9.01134353 180.284586,8.75234353 C178.296586,8.06034353 176.395586,7.28334353 174.407586,6.67834353 C171.383586,5.72734353 168.445586,4.60334353 165.333586,3.82634353 C162.309586,3.04834353 159.198586,2.52934353 156.087586,2.09734353 C152.630586,1.57934353 149.087586,1.40634353 145.630586,1.06034353 C143.383586,0.801343533 141.136586,0.542343533 138.975586,0.455343533 C135.692586,0.283343533 132.321586,0.283343533 129.037586,0.196343533 C127.395586,0.110343533 125.667586,-0.0626564667 124.025586,0.0233435333 C121.519586,0.110343533 119.013586,0.369343533 116.506586,0.715343533 C114.087586,0.974343533 111.667586,1.40634353 109.333586,1.75234353 C106.482586,2.09734353 103.630586,2.27034353 100.778586,2.61634353 C98.0995862,2.96234353 95.3345862,3.48034353 92.6555862,3.91234353 C91.7045862,4.08534353 90.7535862,4.43134353 89.8035862,4.60334353 C87.7295862,5.03634353 85.5685862,5.20934353 83.4945862,5.90034353 C79.7785862,7.02334353 76.0625862,8.32034353 72.4325862,9.70234353 C69.0625862,11.0853435 65.7785862,12.5543435 62.5815862,14.2833435 C59.2975862,16.0973435 56.1865862,18.2583435 53.0745862,20.3323435 C50.1365862,22.3193435 47.1985862,24.3943435 44.3465862,26.6413435 C41.5815862,28.8013435 38.9885862,31.2213435 36.4825862,33.6413435 C35.0995862,35.0233435 33.9765862,36.6653435 32.6795862,38.2213435 C30.5195862,40.7273435 28.3585862,43.1473435 26.2845862,45.7393435 C24.5565862,47.9003435 23.0005862,50.1473435 21.3595862,52.3943435 C18.4205862,56.3693435 15.9145862,60.6033435 13.5815862,64.8383435 C12.6305862,66.5663435 11.7665862,68.2953435 10.9025862,70.0233435 C9.60558616,72.6163435 8.22358616,75.1223435 7.01358616,77.8013435 C6.14958616,79.6163435 5.45758616,81.6033435 4.93958616,83.5913435 C3.72958616,87.8253435 2.51958616,92.1463435 1.39658616,96.3813435 C0.359586155,100.183344 0.0995861552,104.159344 0.0135861552,108.048344 C-0.0734138448,111.504344 0.272586155,114.875344 0.618586155,118.332344 C0.704586155,119.196344 0.186586155,120.233344 1.22358616,120.924344 C1.30958616,120.924344 1.22358616,121.270344 1.13658616,121.356344 C0.877586155,121.875344 1.13658616,122.393344 1.65558616,122.566344 C1.65558616,122.566344 1.74158616,122.653344 1.74158616,122.739344 L1.30958616,122.739344 C1.05058616,123.517344 1.91458616,124.122344 1.56858616,124.986344 C1.48258616,125.159344 1.82858616,125.504344 2.00058616,125.764344 C2.00058616,126.023344 1.91458616,126.369344 2.00058616,126.628344 C2.08758616,127.406344 2.43358616,128.183344 2.43358616,129.048344 C2.43358616,129.653344 2.95158616,130.344344 3.12458616,130.949344 C3.21058616,131.208344 3.12458616,131.640344 2.95158616,131.813344 C2.43358616,132.418344 2.51958616,132.937344 3.29758616,133.282344 C3.47058616,133.369344 3.72958616,133.714344 3.72958616,133.887344 C3.72958616,134.406344 3.55658616,134.924344 3.47058616,135.443344 C3.64258616,135.616344 3.72958616,135.788344 3.64258616,135.961344 C3.64258616,136.220344 3.38358616,136.480344 3.47058616,136.653344 C4.16158616,138.035344 4.42058616,139.591344 4.50758616,141.146344 C4.50758616,141.492344 4.68058616,141.838344 4.85258616,142.270344 C4.93958616,142.270344 5.19858616,142.270344 5.37158616,142.356344 L4.85258616,143.912344 C5.28458616,143.652344 5.63058616,143.566344 6.06258616,143.393344 C6.32158616,144.517344 6.58158616,145.554344 6.92658616,146.504344 C7.01358616,146.677344 7.18658616,146.850344 7.44558616,147.023344 C7.35858616,147.196344 7.35858616,147.541344 7.18658616,147.628344 C7.53158616,149.183344 7.70458616,150.653344 8.30958616,152.122344 C8.39658616,152.122344 8.48258616,152.035344 8.56858616,152.035344 C8.30958616,150.480344 8.13658616,148.838344 7.87758616,147.282344 L7.87758616,146.764344 C7.87758616,146.764344 8.05058616,146.677344 8.13658616,146.677344 C8.22358616,147.023344 8.39658616,147.455344 8.39658616,147.714344 C9.08758616,147.714344 10.1245862,148.146344 10.8155862,148.146344 C10.9025862,147.887344 10.9885862,147.541344 11.0755862,147.369344 C10.5565862,146.850344 10.1245862,146.072344 9.60558616,145.554344 C9.77858616,146.245344 9.60558616,146.504344 9.60558616,146.764344 C9.26058616,146.591344 8.82858616,146.418344 8.39658616,146.245344 C8.74158616,145.813344 9.08758616,145.381344 9.60558616,144.862344 C9.60558616,144.085344 9.17358616,143.393344 7.96358616,143.480344 C8.48258616,143.307344 9.00158616,143.048344 9.60558616,142.875344 C9.69258616,143.134344 9.77858616,143.393344 9.86558616,143.566344 C10.5565862,142.356344 9.51958616,141.406344 9.51958616,140.196344 C9.60558616,138.727344 8.74158616,137.258344 8.48258616,135.702344 C8.05058616,133.282344 8.13658616,129.653344 7.87758616,127.233344 C7.87758616,127.060344 7.61858616,126.887344 7.44558616,126.714344 C7.35858616,126.801344 6.92658616,127.924344 6.84058616,128.011344 C7.09958616,130.085344 7.35858616,132.159344 7.53158616,134.233344 C7.44558616,134.233344 7.35858616,134.233344 7.35858616,134.319344 C7.01358616,132.504344 6.66758616,130.603344 6.23558616,128.529344 C6.14958616,129.134344 6.06258616,129.393344 6.06258616,129.739344 C5.80358616,129.653344 5.71758616,129.566344 5.28458616,129.393344 C5.63058616,130.171344 5.97658616,130.690344 6.23558616,131.295344 C5.63058616,131.035344 4.93958616,131.122344 4.93958616,131.122344 L4.93958616,133.541344 C4.07558616,132.677344 3.81558616,131.986344 3.38358616,131.381344 C3.21058616,130.690344 3.12458616,129.998344 2.95158616,129.307344 L3.21058616,129.220344 C3.12458616,128.875344 2.95158616,128.615344 2.95158616,128.356344 C2.86558616,127.751344 2.77858616,127.060344 2.69258616,126.282344 C2.77858616,126.196344 3.12458616,126.109344 3.29758616,125.937344 L2.60558616,124.900344 C3.29758616,124.986344 3.72958616,125.072344 4.16158616,125.072344 C4.16158616,124.900344 4.24758616,124.813344 4.16158616,124.727344 C3.29758616,123.949344 3.90258616,123.257344 4.24758616,122.566344 C4.42058616,122.220344 5.02558616,122.134344 5.19858616,121.788344 C5.88958616,120.492344 7.01358616,119.455344 7.01358616,117.813344 C7.01358616,117.035344 7.27258616,116.171344 7.35858616,115.393344 C7.53158616,113.924344 7.70458616,112.455344 7.79158616,110.986344 C7.96358616,109.085344 7.79158616,107.183344 8.22358616,105.369344 C8.91458616,102.344344 9.77858616,99.3193435 10.7295862,96.2953435 C11.4205862,94.1343435 12.1985862,92.0603435 13.0625862,89.9003435 C14.3595862,86.5293435 15.5685862,83.1593435 17.2105862,79.9613435 C19.5445862,75.2953435 22.2235862,70.8013435 24.8155862,66.2213435 C26.4575862,63.3693435 28.1865862,60.6903435 30.0005862,57.9243435 C31.7295862,55.2453435 33.4575862,52.4803435 35.4455862,49.9743435 C38.2105862,46.4313435 41.2355862,43.1473435 44.6055862,40.2083435 C48.0625862,37.0973435 51.3465862,33.9003435 55.0625862,31.0483435 C59.9025862,27.3323435 65.0005862,24.0483435 70.4455862,21.1963435 C74.8525862,18.8633435 79.4325862,17.0483435 84.0135862,15.3193435 C86.9515862,14.1963435 90.1485862,13.6783435 93.1735862,12.7273435 C96.6305862,11.6033435 100.087586,11.0853435 103.716586,10.9983435 C106.050586,10.9123435 108.297586,10.6533435 110.630586,10.3943435 C112.704586,10.2213435 114.778586,10.0483435 117.025586,9.78934353 C116.766586,10.1343435 116.679586,10.3073435 116.593586,10.4803435 C115.642586,11.8633435 114.605586,13.2453435 113.655586,14.6283435 C112.877586,15.7523435 112.013586,16.9613435 111.235586,18.0853435 C109.852586,19.9003435 108.383586,21.7153435 107.087586,23.6163435 C105.099586,26.4683435 103.284586,29.4063435 101.210586,32.2583435 C99.1365862,35.0233435 96.8895862,37.6163435 94.7295862,40.2953435 C91.8775862,44.0113435 89.1985862,47.8133435 86.3465862,51.5293435 C83.7535862,55.0733435 80.9885862,58.4433435 78.4825862,61.9863435 C76.2355862,65.0973435 74.2475862,68.3813435 72.0875862,71.5793435 C68.8895862,76.3323435 65.6925862,80.9983435 62.4945862,85.7513435 C59.9885862,89.3813435 57.4825862,92.9243435 54.8895862,96.5543435 C54.7165862,96.8133435 54.4575862,96.9003435 54.1985862,97.0723435 C54.0255862,97.2453435 53.6795862,97.4183435 53.6795862,97.5913435 C53.5075862,98.1963435 53.5075862,98.8013435 53.2475862,99.3193435 C52.5565862,100.616344 51.8655862,101.912344 51.0875862,103.122344 C50.6555862,103.813344 50.0505862,104.418344 49.5315862,105.109344 C49.3585862,105.023344 49.2725862,104.937344 49.0995862,104.937344 C49.4455862,104.072344 50.9145862,103.554344 50.2235862,102.258344 C49.7915862,102.949344 49.3585862,103.554344 48.9265862,104.245344 L47.8895862,106.319344 C48.2355862,106.579344 48.8405862,106.751344 48.2355862,107.270344 C47.9765862,107.702344 47.7165862,108.220344 47.4575862,108.653344 C47.5445862,108.653344 47.5445862,108.739344 47.6305862,108.739344 C47.8895862,108.393344 48.1495862,108.134344 48.4085862,107.788344 C48.4945862,107.788344 48.5815862,107.875344 48.6675862,107.875344 C48.4085862,108.739344 47.8895862,109.517344 47.4575862,110.295344 C47.1115862,110.986344 46.2475862,111.504344 45.6425862,112.023344 C45.7295862,112.109344 46.3345862,112.369344 46.4205862,112.455344 C46.6795862,112.109344 46.7665862,112.282344 47.0255862,111.937344 C47.1985862,112.196344 47.4575862,111.764344 47.5445862,112.023344 C47.8035862,111.677344 48.0625862,111.418344 48.1495862,111.159344 C48.4945862,110.295344 49.0135862,109.603344 49.8775862,109.258344 C50.2235862,109.085344 50.4825862,108.825344 50.7415862,108.566344 C53.3345862,105.887344 56.0135862,103.295344 58.3465862,100.443344 C61.9765862,96.0353435 65.2605862,91.4553435 68.7165862,86.9613435 C70.1865862,85.0603435 71.9145862,83.1593435 73.4695862,81.3443435 C73.6425862,81.4313435 73.8155862,81.4313435 73.9025862,81.5173435 C73.7295862,83.3323435 73.5565862,85.2333435 73.4695862,87.0483435 C73.2105862,90.2453435 73.0375862,93.4433435 72.7785862,96.7273435 C72.6925862,98.0233435 72.7785862,99.3193435 72.6925862,100.616344 C72.6925862,100.961344 72.4325862,101.220344 72.4325862,101.566344 C72.4325862,102.430344 72.6925862,103.381344 72.6925862,104.245344 C72.4325862,107.443344 72.0875862,110.554344 71.8275862,113.751344 C71.7415862,114.443344 72.0875862,115.134344 72.2605862,115.739344 C72.1735862,115.653344 72.0875862,115.566344 71.8275862,115.393344 C71.8275862,120.406344 72.7785862,125.332344 72.0005862,130.258344 C72.3465862,130.171344 72.5195862,130.085344 72.5195862,129.912344 C72.6055862,129.307344 72.7785862,128.702344 72.7785862,128.097344 C72.8655862,127.579344 72.7785862,127.060344 72.7785862,126.455344 L72.7785862,125.591344 C72.8655862,124.035344 73.2105862,122.393344 73.0375862,120.838344 C72.8655862,119.109344 72.8655862,117.467344 73.2105862,115.825344 C73.3835862,115.134344 73.1245862,114.270344 73.5565862,113.406344 L73.5565862,114.702344 C73.4695862,119.628344 73.6425862,124.554344 72.9515862,129.480344 C72.8655862,129.912344 73.2105862,130.690344 72.2605862,130.603344 C72.1735862,130.603344 72.0875862,131.035344 71.9145862,131.295344 C71.4825862,132.159344 72.4325862,133.282344 71.5685862,134.146344 C71.3955862,134.319344 71.7415862,135.097344 71.8275862,135.616344 C71.8275862,135.788344 71.9145862,135.961344 71.8275862,136.048344 C71.4825862,136.653344 71.4825862,136.653344 72.0005862,136.739344 C72.0875862,138.640344 72.2605862,140.369344 72.3465862,142.183344 L72.6055862,142.183344 C73.7295862,138.899344 73.0375862,135.529344 73.6425862,132.159344 C73.7295862,133.541344 73.8155862,134.924344 73.7295862,136.393344 C73.7295862,138.640344 73.6425862,140.801344 73.5565862,143.048344 C73.5565862,143.480344 73.4695862,143.912344 73.3835862,144.344344 C73.1245862,145.554344 73.0375862,146.764344 72.6055862,147.887344 C72.2605862,148.751344 72.4325862,150.048344 72.4325862,151.085344 L72.4325862,154.368344 C72.4325862,154.455344 72.6925862,154.714344 72.6925862,155.060344 C72.7785862,155.838344 72.3465862,156.616344 72.6055862,157.480344 C72.6925862,157.653344 72.5195862,157.912344 72.4325862,158.085344 C72.3465862,158.344344 72.2605862,158.603344 72.3465862,158.862344 L72.6055862,160.159344 C72.6055862,160.245344 72.6925862,160.332344 72.7785862,160.504344 C72.8655862,160.159344 72.8655862,159.899344 72.8655862,159.813344 C74.3345862,159.986344 73.5565862,161.282344 74.2475862,161.974344 C73.9025862,162.146344 73.6425862,162.233344 73.6425862,162.319344 C73.7295862,162.665344 73.9025862,162.924344 73.9025862,163.270344 C73.9025862,164.047344 73.8155862,164.739344 73.7295862,165.517344 C73.7295862,167.504344 73.6425862,169.492344 73.6425862,171.393344 C73.6425862,171.652344 73.7295862,171.912344 73.7295862,172.171344 C73.7295862,172.344344 73.6425862,172.517344 73.6425862,172.776344 L73.6425862,174.591344 L73.9885862,174.591344 C73.8155862,174.850344 73.6425862,175.109344 73.3835862,175.368344 C73.2975862,175.368344 73.0375862,175.368344 73.0375862,175.282344 L73.0375862,164.393344 L71.7415862,164.393344 C71.5685862,169.578344 72.0005862,174.245344 71.0505862,179.084344 C70.0135862,179.171344 69.6675862,179.344344 68.5445862,179.344344 C65.8655862,179.344344 63.1865862,179.344344 60.5075862,179.430344 C57.3095862,179.430344 54.1985862,179.517344 51.0005862,179.517344 C49.4455862,179.517344 47.8035862,179.689344 46.2475862,179.689344 C44.1735862,179.689344 42.0135862,179.430344 39.9395862,179.430344 C36.7415862,179.430344 33.6305862,179.689344 30.4335862,179.776344 C28.0995862,179.862344 25.7665862,179.862344 23.4335862,179.949344 C21.8775862,180.035344 20.3215862,180.122344 18.7665862,180.294344 C18.0755862,180.381344 17.4705862,180.640344 16.6055862,180.899344 C16.3465862,180.899344 15.7415862,180.813344 15.2235862,180.899344 C14.3595862,181.072344 13.5815862,181.591344 12.7175862,181.763344 C11.4205862,182.023344 11.0755862,182.368344 11.2475862,183.665344 L11.2475862,184.529344 C11.0755862,184.356344 10.8155862,184.183344 10.6425862,184.097344 C10.5565862,184.097344 10.4705862,184.183344 10.4705862,184.183344 C10.5565862,184.442344 10.7295862,184.615344 10.8155862,184.875344 C11.1615862,184.702344 11.5935862,184.270344 11.9395862,184.270344 L13.1495862,184.270344 C12.9765862,184.270344 12.8895862,184.788344 12.6305862,185.220344 C13.3215862,184.961344 13.7545862,184.788344 14.1865862,184.615344 C14.2725862,184.875344 14.2725862,185.220344 14.2725862,185.307344 C15.4825862,185.220344 16.6055862,184.875344 17.6425862,185.134344 C21.0135862,185.998344 24.4705862,186.344344 27.9265862,186.689344 C30.1735862,186.862344 32.3345862,186.949344 34.5815862,187.035344 C37.7785862,187.208344 40.9765862,187.381344 44.1735862,187.381344 C46.8525862,187.381344 49.4455862,187.122344 52.1245862,187.122344 C55.8405862,187.122344 59.5565862,187.294344 63.2725862,187.381344 C64.0505862,187.381344 64.9145862,187.294344 65.7785862,187.294344 L72.0875862,187.294344 C77.7045862,187.122344 83.3215862,187.035344 88.9395862,186.862344 C92.1365862,186.776344 95.4205862,186.603344 98.6185862,186.517344 L108.469586,186.257344 C112.272586,186.171344 116.074586,186.171344 119.790586,186.084344 C122.642586,186.084344 125.408586,185.998344 128.259586,185.912344 C131.457586,185.825344 134.741586,185.566344 137.938586,185.393344 C139.667586,185.307344 141.395586,185.134344 143.124586,184.961344 C145.198586,184.788344 147.358586,184.529344 149.432586,184.442344 C152.543586,184.270344 155.741586,184.183344 158.852586,184.010344 C162.741586,183.751344 166.630586,183.405344 170.605586,183.319344 C174.235586,183.146344 177.951586,183.233344 181.580586,183.146344 C184.778586,183.060344 187.975586,182.887344 191.259586,182.801344 L196.704586,182.541344 C196.704586,182.541344 200.333586,182.455344 202.148586,182.282344 C205.259586,182.109344 208.370586,181.763344 211.481586,181.677344 C213.469586,181.591344 215.457586,181.677344 217.444586,181.591344 C220.642586,181.504344 223.926586,181.331344 227.123586,181.331344 C228.333586,181.331344 229.630586,181.504344 231.185586,181.591344 C230.494586,182.196344 230.062586,182.541344 229.543586,182.973344 C229.889586,183.060344 230.234586,183.233344 230.580586,183.405344 C230.580586,183.492344 230.494586,183.578344 230.494586,183.751344 C230.062586,183.751344 229.630586,183.838344 229.197586,183.838344 C229.025586,184.270344 228.852586,184.442344 228.679586,185.307344 L230.234586,185.307344 C229.630586,185.307344 229.111586,186.084344 228.506586,186.603344 C228.593586,186.689344 228.679586,186.689344 228.765586,186.776344 C227.815586,186.430344 227.210586,186.603344 226.864586,187.554344 C227.123586,187.640344 227.296586,187.640344 227.555586,187.640344 C227.469586,187.899344 227.383586,188.159344 227.296586,188.504344 C227.210586,188.677344 227.123586,188.850344 227.123586,189.109344 L226.864586,188.850344 C226.864586,188.677344 226.864586,188.504344 226.778586,188.331344 C226.259586,188.850344 225.481586,189.196344 225.913586,190.319344 C225.568586,190.492344 225.136586,190.665344 224.704586,190.924344 C224.790586,191.097344 224.963586,191.270344 225.049586,191.529344 C224.272586,191.615344 223.494586,191.788344 223.667586,192.739344 C224.012586,192.825344 224.358586,192.998344 224.617586,193.084344 C224.185586,193.257344 223.753586,193.516344 223.321586,193.689344 C223.234586,193.862344 223.148586,194.294344 222.975586,194.381344 C221.765586,194.640344 222.457586,195.072344 222.802586,195.504344 C222.543586,195.677344 222.284586,195.850344 222.025586,195.936344 C222.284586,196.023344 222.457586,196.109344 222.630586,196.282344 C222.370586,196.455344 222.197586,196.541344 222.025586,196.628344 C222.197586,196.714344 222.457586,196.887344 222.543586,196.887344 C222.197586,197.146344 221.765586,197.492344 221.247586,197.924344 C221.247586,198.097344 221.247586,198.183344 221.333586,198.356344 C220.988586,198.702344 220.642586,199.047344 220.296586,199.566344 C219.951586,200.084344 219.778586,200.776344 219.346586,201.294344 C217.531586,203.282344 216.234586,205.615344 213.901586,207.171344 C213.037586,207.776344 212.259586,208.553344 211.481586,209.331344 C209.926586,210.800344 208.543586,212.442344 206.901586,213.825344 C204.741586,215.640344 202.494586,217.282344 200.160586,218.924344 C197.309586,220.911344 194.457586,222.899344 191.605586,224.800344 C190.049586,225.837344 188.321586,226.615344 186.679586,227.566344 C185.037586,228.516344 183.482586,229.381344 181.839586,230.331344 C180.802586,231.023344 179.852586,231.973344 178.728586,232.492344 C175.876586,233.702344 172.852586,234.739344 169.914586,235.862344 C169.654586,235.948344 169.482586,236.035344 169.222586,236.121344 C167.062586,237.072344 164.988586,238.109344 162.827586,238.887344 C160.839586,239.578344 158.766586,240.097344 156.691586,240.529344 C156.000586,240.702344 155.222586,240.529344 154.445586,240.615344 C152.975586,240.874344 151.506586,241.220344 150.037586,241.393344 C146.235586,241.912344 142.432586,242.257344 138.630586,242.776344 C136.383586,243.035344 134.222586,243.467344 131.975586,243.726344 C130.420586,243.813344 128.778586,243.640344 127.222586,243.640344 C126.099586,243.640344 124.889586,243.899344 123.765586,243.726344 C121.951586,243.467344 120.136586,243.035344 118.321586,242.689344 C117.889586,242.603344 117.284586,242.430344 116.938586,242.603344 C116.247586,242.948344 115.642586,242.430344 114.951586,242.603344 C114.519586,242.689344 114.087586,242.344344 113.654586,242.344344 C113.309586,242.257344 112.877586,242.430344 112.445586,242.344344 C111.494586,242.084344 110.630586,241.739344 109.593586,241.825344 C108.556586,241.912344 107.519586,241.393344 106.395586,241.134344 C104.840586,240.788344 103.371586,240.442344 101.815586,240.097344 C101.210586,239.924344 100.692586,239.665344 100.087586,239.319344 C99.9145862,239.405344 99.6545862,239.578344 99.3095862,239.578344 C97.8405862,239.319344 96.3715862,239.233344 94.9885862,238.714344 C93.7785862,238.282344 92.6555862,237.677344 91.3585862,237.850344 C91.0135862,237.936344 90.7535862,237.763344 90.4085862,237.763344 C90.1485862,237.418344 89.8895862,236.726344 89.6305862,236.726344 C87.9015862,236.813344 86.8645862,235.344344 85.3955862,234.912344 C84.6175862,234.652344 84.0135862,233.788344 83.2355862,233.529344 C81.3345862,232.751344 79.7785862,231.109344 77.6185862,230.850344 C76.9265862,230.763344 76.2355862,230.418344 75.4575862,230.158344 C75.7165862,230.504344 75.8895862,230.763344 76.1485862,231.023344 L75.9755862,231.195344 C73.6425862,229.813344 71.3095862,228.430344 68.9765862,227.134344 C68.6305862,227.047344 68.3715862,226.702344 68.1115862,226.529344 L65.7785862,224.973344 C65.5195862,224.800344 65.0005862,224.541344 65.0005862,224.627344 C64.4825862,225.233344 63.9635862,224.714344 63.6185862,224.541344 C61.2845862,222.899344 58.6055862,221.862344 56.3585862,220.047344 C55.4085862,219.270344 54.2845862,218.751344 53.5935862,217.800344 C52.3835862,216.331344 50.9145862,215.294344 49.2725862,214.430344 C47.9765862,213.739344 46.7665862,212.961344 45.5565862,212.183344 C44.9515862,211.751344 44.3465862,211.233344 44.3465862,210.282344 C44.3465862,209.677344 44.0875862,209.072344 43.3095862,209.418344 C42.9635862,208.899344 42.6185862,208.294344 42.1865862,208.121344 C41.1495862,207.689344 40.4575862,206.912344 39.6795862,206.220344 C38.9025862,205.529344 38.2975862,204.578344 37.3465862,204.233344 C35.6185862,203.541344 34.5815862,202.072344 33.5445862,200.862344 C31.1245862,198.010344 28.9635862,194.899344 26.7165862,191.874344 C26.5445862,191.615344 26.1985862,191.442344 25.9395862,191.183344 L25.8525862,191.270344 C26.2845862,192.134344 26.7165862,192.912344 27.1495862,193.776344 C27.0625862,193.862344 26.8895862,193.949344 26.8035862,194.035344 C26.2845862,193.430344 25.6795862,192.825344 25.1615862,192.220344 C25.0745862,192.307344 24.9885862,192.393344 24.9025862,192.393344 L31.1245862,202.245344 C31.6425862,203.023344 32.0745862,203.800344 32.5935862,204.578344 C32.5075862,204.665344 32.4205862,204.751344 32.2475862,204.837344 C31.2975862,204.665344 30.4335862,203.973344 30.0005862,203.195344 C29.2235862,201.813344 28.3585862,200.949344 26.6305862,201.121344 C26.4575862,200.516344 26.2845862,199.825344 26.1985862,199.220344 C25.8525862,199.220344 25.5935862,199.220344 24.9885862,199.134344 C26.1985862,201.035344 27.2355862,202.677344 28.3585862,204.578344 C27.9265862,204.319344 27.6675862,204.146344 27.4945862,204.060344 C29.0505862,205.702344 30.1735862,207.776344 32.1615862,208.813344 C32.5935862,210.800344 34.8405862,211.751344 35.3585862,213.652344 C34.9265862,213.566344 34.5815862,213.479344 34.1495862,213.393344 C33.4575862,212.529344 32.6795862,211.665344 31.9025862,210.714344 C32.0745862,211.319344 32.3345862,211.837344 32.6795862,212.270344 C33.7165862,213.566344 34.6675862,214.862344 35.8775862,215.986344 C36.3095862,216.418344 36.9145862,216.591344 36.9145862,217.368344 C37.0875862,217.195344 37.2605862,217.109344 37.6055862,216.936344 C37.4325862,217.282344 37.3465862,217.455344 37.2605862,217.714344 C37.6055862,217.714344 37.8655862,217.800344 38.1245862,217.800344 C38.2975862,218.319344 38.0375862,219.097344 39.0745862,218.924344 C39.1615862,218.924344 39.2475862,219.010344 39.3345862,219.097344 C39.7665862,220.220344 40.4575862,220.220344 41.4085862,219.788344 C41.5815862,219.702344 42.0135862,219.788344 42.0995862,219.961344 C42.5315862,220.911344 43.1365862,220.998344 43.9145862,220.307344 C43.9145862,220.739344 44.0005862,221.171344 44.0005862,221.516344 L44.3465862,221.516344 C44.3465862,221.344344 44.2605862,221.084344 44.2605862,220.652344 C44.6925862,220.998344 44.9515862,221.171344 45.1245862,221.344344 C45.9885862,222.553344 46.7665862,223.677344 47.9765862,224.627344 C49.6185862,226.010344 51.0875862,227.479344 52.6425862,228.776344 C55.6675862,231.282344 59.0375862,233.356344 62.4085862,235.257344 C66.5565862,237.590344 70.5315862,240.097344 74.7665862,242.343344 C79.8645862,245.023344 85.3095862,246.837344 90.9265862,248.134344 C93.0005862,248.566344 94.9885862,248.998344 97.0625862,249.516344 C98.8775862,250.035344 100.692586,250.813344 102.506586,251.245344 C105.272586,251.850344 108.124586,252.368344 110.889586,252.887344 C111.494586,252.973344 112.099586,253.060344 112.790586,253.146344 L112.790586,253.319344 C113.568586,253.319344 114.519586,252.973344 114.692586,253.232344 C115.124586,253.924344 115.469586,253.578344 115.988586,253.492344 C116.593586,253.319344 117.284586,253.319344 117.975586,253.319344 C120.395586,253.405344 122.728586,253.924344 125.148586,253.751344 C125.667586,253.751344 126.445586,253.319344 126.877586,254.183344 C127.050586,254.096344 127.136586,254.010344 127.309586,253.924344 C127.654586,253.837344 128.087586,253.837344 128.432586,253.751344 L128.432586,253.924344 C128.259586,254.010344 128.087586,254.010344 127.741586,254.097344 C128.173586,254.183344 128.432586,254.269344 128.692586,254.356344 C128.519586,254.529344 128.432586,254.529344 128.259586,254.615344 C128.087586,254.701344 127.827586,254.788344 127.482586,255.047344 C130.593586,255.652344 133.531586,255.739344 136.124586,255.047344 L136.124586,254.529344 L136.469586,254.529344 C136.469586,254.701344 136.556586,254.874344 136.642586,255.047344 C140.617586,255.393344 144.506586,254.874344 148.222586,253.578344 C148.568586,254.010344 148.827586,254.615344 149.346586,253.751344 C149.519586,253.492344 149.951586,253.405344 150.296586,253.319344 C151.074586,253.146344 152.025586,252.800344 152.716586,253.060344 C153.494586,253.319344 153.753586,252.627344 154.358586,252.627344 C155.395586,252.627344 156.346586,252.541344 157.296586,252.368344 C157.815586,252.282344 158.333586,252.022344 158.938586,251.850344 C158.938586,251.763344 158.938586,251.677344 158.852586,251.590344 C158.247586,251.504344 157.556586,251.418344 157.037586,251.418344 C158.074586,250.899344 159.025586,250.467344 159.975586,250.035344 C159.975586,250.121344 160.062586,250.121344 160.062586,250.208344 C159.802586,250.294344 159.630586,250.640344 159.284586,250.640344 L160.494586,250.640344 C160.235586,250.640344 159.889586,251.418344 159.457586,251.936344 C162.568586,251.158344 165.420586,250.467344 168.185586,249.776344 L168.185586,249.603344 C167.840586,249.689344 167.580586,249.689344 167.321586,249.776344 C167.235586,247.961344 169.222586,248.566344 169.914586,247.529344 C169.049586,247.788344 168.185586,248.047344 167.321586,248.220344 L167.321586,248.047344 C170.259586,246.751344 173.284586,245.455344 176.222586,244.158344 C176.222586,244.245344 176.309586,244.245344 176.309586,244.331344 C175.790586,244.677344 175.272586,244.936344 174.494586,245.368344 C175.012586,245.455344 175.358586,245.455344 175.617586,245.541344 C175.617586,245.800344 175.617586,245.973344 175.531586,246.060344 C177.000586,245.973344 176.654586,244.677344 177.086586,243.899344 C177.346586,243.985344 177.691586,244.158344 177.951586,244.072344 C178.728586,243.899344 179.420586,243.640344 180.197586,243.381344 C181.062586,243.121344 181.926586,242.862344 182.790586,242.516344 C184.173586,241.911344 185.469586,241.134344 186.852586,240.442344 C187.111586,240.356344 187.543586,240.442344 187.889586,240.442344 C188.148586,240.442344 188.321586,240.269344 188.494586,240.097344 C188.839586,239.837344 189.185586,239.319344 189.444586,239.405344 C190.654586,239.578344 191.518586,239.146344 191.864586,238.023344 C191.951586,238.023344 191.951586,237.936344 192.037586,237.936344 C192.469586,237.591344 192.901586,237.245344 193.333586,236.985344 C195.235586,235.948344 197.049586,234.912344 198.951586,233.874344 C199.037586,233.788344 199.210586,233.874344 199.383586,233.874344 C199.642586,233.874344 199.988586,233.874344 200.160586,233.788344 C201.284586,233.269344 202.321586,232.665344 203.358586,232.060344 C203.099586,231.973344 203.358586,231.887344 202.494586,231.800344 L202.494586,231.627344 C203.358586,231.455344 203.617586,231.368344 204.136586,231.195344 L203.963586,231.023344 C206.210586,228.776344 209.062586,227.134344 211.222586,225.233344 C211.654586,225.319344 211.827586,225.405344 212.086586,225.405344 C212.173586,225.146344 212.173586,224.887344 212.173586,224.714344 C212.518586,224.282344 212.864586,223.763344 213.296586,223.418344 C215.197586,221.689344 217.272586,220.220344 219.000586,218.405344 C221.506586,215.899344 223.926586,213.307344 226.173586,210.628344 C228.247586,208.208344 230.321586,205.788344 232.049586,203.109344 C234.469586,199.393344 236.543586,195.591344 238.703586,191.702344 C240.259586,188.936344 241.642586,186.171344 243.197586,183.405344 C243.370586,183.146344 243.716586,182.801344 243.975586,182.801344 C246.308586,182.541344 248.642586,182.368344 250.889586,182.109344 C251.407586,182.023344 252.012586,181.677344 252.531586,181.418344 C252.271586,180.986344 252.098586,180.467344 251.839586,180.035344 C251.494586,179.516344 250.975586,179.084344 250.629586,178.566344 C250.284586,178.134344 250.025586,177.615344 249.765586,177.097344 C249.506586,176.665344 249.247586,176.319344 248.987586,175.887344 C248.469586,174.936344 247.950586,173.986344 247.518586,172.949344 C247.432586,172.689344 247.259586,172.257344 247.345586,171.998344 C248.901586,168.628344 249.506586,164.998344 250.975586,161.628344 C252.444586,158.171344 252.876586,154.282344 253.568586,150.566344 C254.173586,147.023344 254.518586,143.480344 254.950586,139.936344 C255.210586,137.430344 255.555586,135.010344 255.642586,132.504344 C256.160586,128.529344 255.987586,124.813344 255.901586,121.097344 L255.901586,121.097344 L255.901586,121.097344 Z M38.6425862,217.541344 C38.0385862,216.850344 37.5195862,216.072344 36.9145862,215.381344 L37.1735862,215.121344 C38.1245862,216.159344 39.0755862,217.195344 40.0255862,218.319344 C39.5075862,218.060344 38.9025862,217.887344 38.6425862,217.541344 L38.6425862,217.541344 L38.6425862,217.541344 Z M40.0255862,218.319344 C40.2845862,218.233344 40.5445862,218.233344 40.8035862,218.146344 C41.0625862,218.578344 41.2355862,219.097344 41.4945862,219.615344 C40.2845862,219.529344 39.6795862,219.010344 40.0255862,218.319344 L40.0255862,218.319344 L40.0255862,218.319344 Z M129.901586,254.010344 L129.901586,253.751344 C131.543586,253.578344 133.099586,253.405344 134.741586,253.233344 L134.741586,253.492344 C133.099586,253.751344 131.543586,253.924344 129.901586,254.010344 L129.901586,254.010344 L129.901586,254.010344 Z M151.679586,251.763344 C150.469586,252.023344 149.173586,252.195344 147.963586,252.368344 C147.531586,252.455344 147.013586,252.887344 146.840586,252.109344 C146.667586,252.195344 146.494586,252.195344 146.321586,252.282344 C146.753586,253.578344 147.790586,252.541344 148.654586,253.060344 C146.753586,253.319344 144.938586,253.492344 143.124586,253.751344 L143.124586,253.578344 C143.642586,253.492344 144.247586,253.405344 144.766586,253.319344 L144.766586,253.060344 C143.901586,252.973344 143.037586,252.887344 142.173586,252.887344 C141.914586,252.887344 141.568586,253.233344 141.309586,253.319344 C140.963586,253.405344 140.617586,253.492344 140.185586,253.492344 C138.716586,253.578344 137.247586,253.578344 135.864586,253.665344 C135.778586,253.665344 135.605586,253.578344 135.519586,253.578344 L135.519586,253.319344 C141.309586,252.541344 147.013586,251.763344 152.803586,250.986344 C152.889586,251.158344 152.889586,251.331344 152.975586,251.504344 C152.457586,251.504344 152.111586,251.677344 151.679586,251.763344 L151.679586,251.763344 L151.679586,251.763344 Z M152.975586,250.899344 C154.963586,250.640344 156.778586,250.467344 158.679586,250.208344 C154.704586,251.331344 153.408586,251.504344 152.975586,250.899344 L152.975586,250.899344 L152.975586,250.899344 Z M77.7045862,76.4183435 C80.4705862,72.6163435 83.3215862,68.8133435 86.0875862,64.9243435 C86.9515862,63.8013435 87.6425862,62.5913435 88.5075862,61.4683435 C88.7665862,61.1223435 89.1115862,60.9493435 89.5445862,60.6033435 L89.4575862,60.4313435 C89.8035862,59.9983435 90.1485862,59.6533435 90.3215862,59.3073435 C90.7535862,58.6163435 91.0135862,57.8383435 91.3585862,57.0603435 C91.4455862,56.8873435 91.7045862,56.7153435 91.7045862,56.7153435 C92.9145862,57.3193435 92.9145862,56.0233435 93.3465862,55.5913435 C94.1245862,54.7273435 94.9025862,53.7763435 95.5935862,52.9123435 C96.1115862,52.2213435 96.6305862,51.6163435 97.0625862,50.8383435 C97.1485862,50.5793435 96.8895862,50.1473435 96.8035862,49.8013435 L96.5445862,49.8013435 C96.8035862,49.6283435 97.0625862,49.3693435 97.3215862,49.1963435 C97.4085862,49.1963435 97.4085862,49.1963435 97.4945862,49.1103435 C98.0135862,48.3323435 98.5315862,47.5543435 99.0505862,46.8633435 C100.087586,45.4803435 101.210586,44.0973435 102.420586,42.8873435 C102.247586,43.3193435 102.074586,43.7523435 101.902586,44.0973435 C101.988586,44.0973435 101.988586,44.1843435 102.074586,44.1843435 C103.111586,42.8013435 104.235586,41.5053435 105.272586,40.1223435 C105.185586,40.0363435 105.099586,39.9493435 105.013586,39.9493435 C104.581586,40.3813435 104.235586,40.8133435 103.803586,41.2453435 C103.716586,41.1593435 103.630586,41.0733435 103.543586,41.0733435 C104.408586,39.9493435 105.272586,38.8263435 106.136586,37.5293435 C106.309586,37.7893435 106.482586,38.1343435 106.827586,38.8263435 C107.173586,37.9613435 107.519586,37.3563435 107.778586,36.7523435 C107.519586,37.0113435 107.173586,37.2703435 106.914586,37.5293435 L106.654586,37.2703435 L108.210586,34.9373435 C109.852586,32.6033435 111.494586,30.1843435 113.136586,27.8503435 C113.741586,26.9863435 114.519586,26.2953435 115.037586,25.4313435 C116.679586,22.1473435 119.272586,19.5543435 121.259586,16.5293435 C121.692586,15.9253435 122.296586,15.4063435 122.815586,14.8873435 C123.247586,14.3693435 123.593586,14.5423435 123.939586,14.9743435 C126.272586,17.9123435 128.605586,20.9373435 130.938586,23.8753435 C132.667586,26.0363435 134.395586,28.1103435 136.037586,30.3563435 C138.025586,33.1223435 139.926586,35.8873435 141.914586,38.6533435 C144.161586,41.8503435 146.408586,45.0483435 148.568586,48.3323435 C151.852586,53.1713435 154.963586,58.0113435 158.247586,62.8503435 C160.667586,66.3943435 163.087586,69.8503435 165.420586,73.3943435 L161.012586,73.3943435 C156.951586,73.3073435 152.803586,72.9613435 148.741586,73.1343435 C143.210586,73.3943435 137.593586,73.9983435 132.062586,74.4303435 C125.062586,75.0353435 117.975586,75.1223435 110.976586,75.1223435 C108.469586,75.1223435 105.963586,75.4673435 103.457586,75.6403435 C100.432586,75.8133435 97.4945862,75.9863435 94.4695862,76.0733435 C90.9265862,76.2453435 87.4695862,76.3323435 83.9265862,76.4183435 C81.9395862,76.5053435 79.8645862,76.4183435 77.7045862,76.4183435 L77.7045862,76.4183435 L77.7045862,76.4183435 Z M176.827586,116.171344 L176.827586,116.949344 C176.741586,116.949344 176.654586,117.035344 176.481586,117.035344 C176.136586,115.825344 175.790586,114.529344 175.358586,113.319344 C174.494586,110.813344 173.543586,108.307344 171.988586,106.060344 C170.259586,103.640344 168.704586,101.134344 166.975586,98.6283435 C166.543586,98.0233435 165.938586,97.5043435 165.420586,96.9863435 C163.605586,94.9983435 161.790586,92.9243435 159.457586,91.4553435 C156.000586,89.2953435 152.457586,87.4803435 148.654586,85.9243435 C147.617586,85.4923435 146.667586,84.9743435 145.630586,84.3693435 L147.704586,84.3693435 L162.482586,84.1103435 C165.679586,84.0233435 168.790586,84.0233435 171.988586,83.8503435 C172.766586,83.8503435 173.198586,84.1103435 173.630586,84.8013435 C174.408586,86.0973435 175.185586,87.3933435 176.049586,88.6903435 C176.136586,88.8623435 176.309586,89.1223435 176.309586,89.3813435 C176.309586,91.2823435 176.309586,93.2703435 176.395586,95.1713435 C176.482586,97.1593435 176.654586,99.0603435 176.741586,101.048344 C176.741586,103.035344 176.568586,105.109344 176.654586,107.183344 C176.741586,110.122344 176.827586,113.146344 176.827586,116.171344 L176.827586,116.171344 L176.827586,116.171344 Z M83.8405862,87.2213435 C87.9025862,87.0483435 91.7905862,86.7883435 95.7665862,86.6163435 C98.8775862,86.4433435 102.074586,86.3563435 105.185586,86.1843435 C106.482586,86.0973435 107.692586,86.0113435 108.988586,86.1843435 C107.605586,86.8753435 106.223586,87.5663435 105.013586,88.4313435 C103.457586,89.4673435 101.988586,90.8503435 100.432586,91.9743435 C98.8775862,93.0973435 97.4945862,94.4803435 96.1985862,95.9493435 C94.5565862,97.9373435 92.7415862,99.6653435 91.0135862,101.566344 C89.8035862,102.949344 88.4205862,104.245344 87.3835862,105.714344 C85.9145862,107.616344 84.6185862,109.690344 83.2355862,111.850344 C83.6675862,103.640344 84.1865862,95.5173435 83.8405862,87.2213435 L83.8405862,87.2213435 L83.8405862,87.2213435 Z M140.272586,170.356344 C137.506586,171.047344 134.655586,171.825344 131.803586,172.171344 C129.383586,172.517344 126.877586,172.430344 124.371586,172.430344 C122.124586,172.430344 119.963586,172.344344 117.716586,172.171344 C115.210586,171.912344 112.704586,171.652344 110.284586,170.529344 C108.210586,169.578344 106.050586,168.714344 103.976586,167.677344 C101.902586,166.640344 99.8275862,165.430344 98.2725862,163.529344 C97.1485862,162.146344 95.5935862,161.023344 94.2105862,159.813344 C94.4695862,160.850344 95.0745862,161.714344 96.0255862,162.319344 C95.5935862,162.838344 94.9885862,162.578344 94.1245862,161.196344 C93.8655862,161.368344 93.6055862,161.455344 93.4325862,161.541344 C93.6925862,160.936344 93.9515862,160.332344 94.2105862,159.813344 C93.8655862,159.122344 93.4325862,158.344344 93.0875862,157.653344 C92.3955862,156.529344 91.7045862,155.319344 91.0995862,154.196344 C90.9265862,153.936344 90.9265862,153.677344 90.7535862,153.418344 C90.3215862,152.899344 89.8895862,152.381344 89.5445862,151.862344 C88.8525862,150.825344 88.2475862,149.702344 87.3835862,148.665344 C87.3835862,148.924344 87.4695862,149.183344 87.4695862,149.529344 C87.3835862,149.529344 87.2975862,149.615344 87.2975862,149.615344 L85.4825862,145.208344 C85.3955862,145.208344 85.3955862,145.208344 85.3095862,145.295344 L86.8655862,150.998344 C86.7785862,150.998344 86.6925862,151.085344 86.6055862,151.085344 C86.3465862,150.739344 86.0875862,150.393344 85.9145862,149.961344 C85.7415862,149.270344 85.2235862,149.270344 84.7905862,149.529344 C84.5315862,149.702344 84.3585862,150.307344 84.4455862,150.566344 C85.0505862,152.035344 85.7415862,153.504344 86.4325862,154.974344 C86.6055862,155.492344 86.7785862,155.924344 87.0375862,156.443344 C87.1245862,156.616344 87.3835862,156.788344 87.3835862,157.048344 C87.7295862,157.739344 87.9885862,158.430344 88.4205862,159.035344 C89.1985862,160.072344 90.0625862,161.109344 90.8405862,162.146344 C91.6185862,163.183344 92.3095862,164.307344 93.0005862,165.344344 C93.0875862,165.517344 93.3465862,165.517344 93.4325862,165.603344 C93.8655862,166.899344 95.3345862,167.850344 96.3715862,167.332344 C96.6305862,169.319344 98.7905862,170.011344 99.6555862,171.912344 C98.6185862,171.480344 97.8405862,171.134344 97.1485862,170.788344 C97.0625862,170.875344 97.0625862,170.961344 96.9765862,171.134344 C98.0135862,171.652344 99.0505862,172.171344 100.000586,172.776344 C100.864586,173.294344 101.729586,173.813344 102.506586,174.418344 C103.544586,175.368344 104.753586,175.887344 106.223586,176.233344 C106.136586,175.973344 106.050586,175.887344 106.050586,175.887344 C108.469586,177.011344 110.976586,178.220344 112.877586,179.171344 C103.889586,179.344344 94.2975862,179.517344 84.3585862,179.689344 C84.3585862,178.047344 84.2725862,176.492344 84.2725862,174.850344 C84.2725862,174.159344 84.4455862,173.554344 84.3585862,172.862344 C84.0995862,168.887344 84.0995862,164.912344 83.5815862,161.023344 C83.0625862,156.875344 83.0625862,152.813344 83.1495862,148.665344 C83.2355862,146.418344 83.0625862,144.085344 82.9765862,141.838344 C82.9765862,138.813344 82.9765862,135.875344 83.0625862,132.850344 C83.0625862,132.418344 83.2355862,132.072344 83.4085862,131.640344 L83.6675862,131.640344 C83.7535862,131.813344 83.6675862,132.072344 83.8405862,132.159344 C84.0995862,132.418344 84.5315862,132.850344 84.7045862,132.764344 C85.2235862,132.418344 86.0005862,132.072344 86.1735862,131.554344 C86.6055862,130.517344 86.7785862,129.393344 86.7785862,128.356344 C86.7785862,127.579344 87.1245862,127.060344 87.4695862,126.541344 C87.6425862,126.282344 87.7295862,126.023344 87.9025862,125.677344 C87.5565862,125.418344 87.2105862,125.245344 86.7785862,124.900344 C87.1245862,123.949344 87.0375862,122.825344 88.3345862,122.307344 C88.5075862,122.220344 88.5075862,121.788344 88.5935862,121.529344 C88.6795862,120.838344 88.7665862,120.060344 88.8525862,119.369344 C89.0255862,119.628344 89.1115862,119.714344 89.2845862,119.887344 C89.3715862,119.714344 89.4575862,119.628344 89.4575862,119.628344 C89.4575862,119.282344 89.3715862,118.591344 89.4575862,118.591344 C90.4945862,118.418344 90.0625862,117.295344 90.5815862,116.776344 C90.6675862,116.690344 90.4945862,116.430344 90.4945862,116.258344 C90.4945862,116.085344 90.4945862,115.825344 90.5815862,115.825344 C91.7905862,115.566344 91.6185862,114.270344 92.3955862,113.665344 C92.6555862,113.492344 92.7415862,113.233344 93.0875862,112.801344 C93.7785862,114.011344 92.5685862,114.616344 92.4825862,115.480344 C93.9515862,114.616344 94.3835862,112.542344 93.5195862,111.937344 C93.8655862,111.677344 94.2105862,111.332344 94.4695862,110.986344 C95.4205862,109.949344 96.4575862,108.998344 97.3215862,107.961344 C97.9265862,107.183344 98.2725862,106.233344 98.8775862,105.455344 C99.2235862,105.023344 99.9145862,104.677344 100.432586,104.418344 C101.988586,103.554344 103.457586,102.603344 104.408586,101.134344 C104.581586,100.961344 104.840586,100.788344 105.099586,100.616344 C105.358586,100.443344 105.877586,100.443344 105.963586,100.183344 C106.050586,100.011344 105.790586,99.5793435 105.617586,99.3193435 C105.963586,99.1463435 106.309586,98.8013435 107.000586,98.4553435 C106.741586,98.9743435 106.655586,99.3193435 106.482586,99.6653435 L106.914586,100.097344 C107.692586,99.4923435 108.902586,98.8013435 109.679586,98.2823435 C109.679586,98.1963435 109.247586,97.8503435 109.247586,97.8503435 C108.729586,98.1103435 107.951586,98.5423435 107.173586,98.8873435 C107.346586,98.6283435 107.346586,98.4553435 107.432586,98.3693435 C108.642586,97.5913435 109.852586,96.8133435 111.148586,96.2083435 C114.173586,94.8253435 117.198586,93.4433435 120.222586,92.1463435 C120.741586,91.8873435 121.432586,92.0603435 122.037586,92.0603435 C122.296586,92.0603435 122.469586,92.0603435 122.729586,91.9743435 C124.111586,91.5423435 125.494586,91.1103435 126.877586,90.7643435 C127.482586,90.5913435 128.173586,90.5053435 128.778586,90.5053435 C131.371586,90.5913435 133.963586,90.5913435 136.556586,90.7643435 C137.679586,90.8503435 138.716586,91.1103435 139.753586,91.4553435 C141.050586,91.8873435 142.432586,92.4923435 143.642586,93.0973435 C145.111586,93.8753435 146.494586,94.7393435 147.877586,95.6903435 C150.383586,97.3323435 152.716586,99.1463435 155.222586,100.616344 C157.642586,102.085344 159.543586,104.072344 161.099586,106.319344 C163.000586,108.998344 165.161586,111.418344 166.025586,114.702344 L167.321586,120.406344 C167.580586,121.443344 168.185586,122.480344 167.926586,123.690344 C167.494586,125.850344 167.148586,128.097344 166.803586,130.258344 C166.630586,131.122344 166.457586,131.986344 166.543586,132.850344 C166.716586,135.529344 165.679586,137.862344 164.642586,140.282344 C164.296586,141.060344 163.778586,141.838344 163.346586,142.702344 C163.432586,142.788344 163.951586,143.048344 164.037586,143.048344 L164.815586,141.492344 C164.901586,141.492344 164.901586,141.492344 164.988586,141.579344 C164.556586,142.788344 164.210586,144.085344 163.778586,145.295344 C162.741586,147.974344 161.704586,150.739344 160.408586,153.332344 C159.716586,154.801344 158.506586,156.011344 157.642586,157.393344 C156.778586,158.603344 156.087586,159.899344 155.222586,161.023344 C154.445586,161.974344 153.667586,162.924344 152.630586,163.616344 C150.296586,165.344344 147.877586,167.072344 145.371586,168.455344 C143.815586,169.406344 142.000586,169.924344 140.272586,170.356344 L140.272586,170.356344 L140.272586,170.356344 Z M94.2105862,165.776344 L94.1245862,165.862344 C93.9515862,165.776344 93.6925862,165.689344 93.5195862,165.517344 L91.4455862,162.406344 C91.2725862,162.146344 91.1865862,161.887344 91.2725862,161.541344 C92.2225862,163.010344 93.1735862,164.393344 94.2105862,165.776344 L94.2105862,165.776344 L94.2105862,165.776344 Z M147.963586,177.615344 C151.852586,175.973344 155.050586,173.640344 157.988586,170.961344 C158.420586,170.529344 158.852586,170.097344 159.371586,169.751344 C163.000586,167.504344 165.679586,164.393344 168.099586,160.936344 C170.864586,156.961344 172.679586,152.467344 174.926586,148.233344 C175.099586,147.887344 175.272586,147.541344 175.445586,147.282344 C175.272586,157.134344 176.395586,166.813344 177.691586,176.578344 C167.926586,176.924344 157.988586,177.270344 147.963586,177.615344 L147.963586,177.615344 L147.963586,177.615344 Z M235.593586,175.023344 C235.506586,175.196344 235.333586,175.368344 235.247586,175.541344 C235.160586,175.368344 235.160586,175.109344 235.074586,174.764344 C234.555586,176.146344 233.432586,175.455344 232.654586,175.455344 C227.988586,175.541344 223.235586,175.541344 218.568586,175.541344 C214.074586,175.541344 209.494586,175.541344 205.000586,175.628344 C203.531586,175.628344 201.975586,175.973344 200.506586,176.060344 C196.963586,176.233344 193.420586,176.319344 189.877586,176.405344 C189.617586,176.405344 189.358586,175.973344 188.926586,175.628344 C188.840586,175.801344 188.667586,176.060344 188.407586,176.405344 C188.321586,176.233344 188.148586,176.060344 187.975586,175.801344 C187.889586,176.060344 187.802586,176.319344 187.716586,176.492344 L187.457586,176.492344 C187.284586,175.282344 186.938586,174.159344 186.938586,172.949344 C186.938586,170.356344 187.197586,167.764344 187.284586,165.171344 C187.370586,163.961344 187.284586,162.838344 187.284586,161.714344 C187.630586,161.974344 187.889586,162.146344 188.235586,162.406344 C188.407586,162.060344 188.580586,161.801344 188.753586,161.541344 C188.753586,161.541344 188.580586,161.455344 188.407586,161.282344 C188.580586,161.196344 188.753586,161.023344 188.753586,160.937344 C188.840586,160.677344 189.012586,160.418344 189.012586,160.245344 C189.012586,159.640344 188.840586,159.122344 188.753586,158.603344 C188.840586,158.603344 188.926586,158.603344 189.012586,158.517344 L189.531586,161.109344 L189.790586,161.109344 C189.445586,160.504344 190.568586,159.986344 189.617586,159.294344 C189.531586,159.208344 189.704586,158.689344 189.704586,158.430344 C189.445586,157.912344 189.272586,157.393344 189.012586,156.702344 C189.099586,156.616344 189.358586,156.529344 189.617586,156.443344 C189.272586,156.270344 189.012586,156.097344 188.753586,156.010344 C189.617586,155.233344 189.617586,154.801344 188.840586,153.936344 C189.012586,153.850344 189.185586,153.850344 189.185586,153.764344 C189.185586,152.986344 189.185586,152.208344 189.012586,151.430344 C188.840586,150.566344 189.272586,149.529344 187.975586,149.011344 C188.062586,149.270344 188.148586,149.443344 188.321586,149.702344 C188.321586,149.702344 188.062586,149.788344 187.802586,149.961344 C186.679586,148.924344 187.370586,147.541344 187.111586,145.986344 C187.716586,146.159344 188.148586,146.332344 188.580586,146.504344 C188.407586,145.900344 187.975586,145.208344 187.716586,144.430344 L187.370586,144.430344 L187.370586,138.727344 C187.370586,138.813344 187.975586,138.813344 188.321586,138.899344 C188.321586,138.813344 188.407586,138.727344 188.407586,138.640344 C188.148586,138.294344 187.802586,137.949344 187.457586,137.517344 L187.630586,137.344344 C186.938586,136.480344 187.284586,135.270344 187.284586,135.011344 L187.284586,128.961344 C188.148586,129.825344 186.852586,130.949344 188.148586,131.467344 L188.148586,130.603344 L188.062586,130.603344 C187.975586,129.307344 187.975586,128.011344 187.889586,126.714344 L187.716586,126.714344 C187.630586,126.887344 187.630586,126.974344 187.543586,127.146344 L187.370586,127.146344 C187.543586,120.319344 187.716586,113.492344 187.889586,106.492344 C188.753586,107.616344 189.704586,108.653344 190.309586,109.776344 C192.296586,113.406344 194.889586,116.517344 197.309586,119.801344 C199.383586,122.653344 201.284586,125.764344 203.185586,128.702344 C205.518586,132.245344 207.765586,135.788344 210.099586,139.332344 C211.827586,142.011344 213.642586,144.690344 215.457586,147.282344 C217.099586,149.615344 218.827586,151.862344 220.556586,154.109344 C222.025586,156.097344 223.580586,158.085344 225.049586,160.072344 C226.778586,162.492344 228.506586,164.912344 230.235586,167.245344 C231.099586,168.455344 232.049586,169.665344 233.000586,170.875344 C233.518586,171.566344 234.296586,172.085344 234.815586,172.517344 C234.728586,172.517344 234.642586,172.517344 234.469586,172.430344 C234.728586,172.776344 234.901586,173.035344 235.074586,173.208344 C236.025586,173.726344 236.111586,174.245344 235.593586,175.023344 L235.593586,175.023344 L235.593586,175.023344 Z M240.000586,153.418344 L240.000586,152.813344 C240.000586,152.986344 240.086586,153.245344 240.000586,153.418344 L240.000586,153.418344 L240.000586,153.418344 Z M242.938586,115.307344 C242.852586,115.307344 242.333586,114.788344 242.247586,114.702344 C242.160586,114.961344 242.247586,115.220344 242.074586,115.566344 C241.988586,115.307344 241.383586,115.393344 241.383586,115.134344 C241.296586,116.344344 241.901586,117.554344 241.815586,118.764344 C242.074586,118.591344 243.111586,118.504344 243.370586,118.245344 C243.457586,118.332344 243.629586,118.418344 243.716586,118.418344 C241.988586,119.714344 242.420586,121.011344 243.197586,122.480344 C243.370586,122.825344 243.889586,123.517344 243.370586,124.208344 C243.197586,124.381344 243.457586,124.900344 243.543586,125.332344 L243.802586,125.332344 L243.802586,125.504344 L243.025586,125.764344 C242.852586,125.504344 241.815586,124.986344 241.815586,124.554344 L241.815586,128.961344 C242.679586,129.220344 242.679586,130.430344 243.025586,131.035344 C243.197586,130.776344 243.284586,130.603344 243.370586,130.344344 L243.457586,130.430344 C243.370586,130.949344 243.284586,131.467344 243.111586,131.986344 C242.938586,132.764344 242.765586,133.455344 242.679586,134.233344 C242.679586,134.319344 242.852586,134.492344 242.852586,134.578344 C241.901586,136.739344 242.420586,139.159344 242.074586,141.406344 C241.815586,143.048344 242.074586,144.776344 241.901586,146.504344 C241.728586,147.974344 241.383586,149.529344 241.037586,150.998344 C240.951586,151.257344 240.778586,151.344344 240.346586,151.517344 C240.518586,150.480344 240.432586,149.788344 240.259586,148.838344 C240.173586,148.838344 239.049586,148.233344 238.963586,148.233344 C238.963586,149.443344 239.654586,151.085344 239.914586,152.467344 C239.654586,152.381344 238.617586,151.776344 238.531586,151.776344 C238.358586,152.813344 238.358586,154.196344 238.272586,155.319344 C238.185586,156.183344 237.407586,156.961344 237.321586,157.912344 C237.321586,158.430344 237.926586,158.776344 237.839586,159.640344 L238.531586,159.640344 C238.531586,157.912344 239.309586,156.356344 239.309586,154.541344 L239.568586,154.541344 C239.654586,154.714344 239.914586,154.887344 239.827586,154.974344 C239.654586,155.924344 239.309586,156.961344 239.395586,157.912344 C239.395586,158.430344 239.827586,158.949344 239.654586,159.554344 C239.481586,160.072344 239.395586,160.591344 239.309586,161.368344 C239.222586,160.936344 239.136586,160.764344 239.136586,160.504344 C239.049586,160.504344 238.272586,160.418344 238.185586,160.418344 C238.099586,160.936344 238.790586,161.455344 238.704586,161.887344 C238.617586,161.974344 238.531586,161.974344 238.358586,162.060344 L235.506586,157.912344 C233.259586,154.628344 231.012586,151.344344 228.765586,147.974344 C228.160586,147.109344 227.642586,146.245344 227.210586,145.381344 C224.531586,140.801344 221.593586,136.393344 218.309586,132.159344 C215.802586,128.961344 213.815586,125.504344 211.481586,122.134344 C209.321586,118.937344 207.160586,115.825344 205.000586,112.628344 C204.222586,111.591344 203.272586,110.640344 202.580586,109.517344 C200.333586,105.974344 198.346586,102.344344 196.099586,98.8013435 C194.198586,95.8623435 192.123586,93.0113435 190.136586,90.1593435 C189.445586,89.2083435 188.753586,88.1713435 188.062586,87.1343435 C187.975586,86.9613435 187.889586,86.7883435 187.889586,86.5293435 C187.716586,84.6283435 187.543586,82.7273435 187.457586,80.9123435 C187.457586,79.1833435 187.630586,77.4553435 187.630586,75.6403435 L187.630586,74.0853435 C187.630586,73.6533435 187.716586,73.3073435 187.716586,72.8753435 C187.802586,72.7883435 187.889586,72.6163435 187.975586,72.5293435 C185.469586,72.5293435 182.877586,72.4433435 180.370586,72.5293435 C178.729586,72.6163435 177.864586,71.9243435 176.741586,70.7153435 C173.457586,66.9983435 171.037586,62.7643435 168.185586,58.7893435 C165.506586,54.9863435 162.741586,51.2703435 159.975586,47.5543435 C157.729586,44.5293435 155.482586,41.5913435 153.235586,38.5663435 C150.729586,35.1103435 148.309586,31.6533435 145.716586,28.1963435 C142.605586,24.0483435 139.408586,19.9003435 136.210586,15.7523435 C134.741586,13.8503435 133.099586,12.0363435 131.457586,10.0483435 C132.580586,10.2213435 133.617586,10.3943435 134.655586,10.4803435 L138.803586,10.7393435 C141.914586,10.9993435 145.025586,11.1713435 148.136586,11.6033435 C150.729586,11.9493435 153.321586,12.4683435 156.000586,12.9003435 C161.704586,13.8503435 167.321586,15.4063435 172.766586,17.2213435 C175.963586,18.2583435 179.074586,19.6413435 182.185586,20.9373435 C189.185586,23.7893435 195.840586,27.2453435 202.407586,30.8753435 C204.482586,31.9983435 205.691586,33.8133435 207.247586,35.4553435 C209.494586,37.7893435 211.741586,40.1223435 213.901586,42.5423435 C216.407586,45.3943435 218.741586,48.3323435 221.160586,51.2703435 C223.321586,53.8633435 225.568586,56.4553435 227.728586,59.0483435 C228.420586,59.8263435 228.938586,60.7763435 229.543586,61.6403435 C230.926586,63.7143435 232.481586,65.7023435 233.691586,67.9493435 C234.556586,69.5913435 235.074586,71.4923435 235.679586,73.3073435 C236.543586,75.9863435 237.407586,78.5793435 238.272586,81.2583435 C238.876586,83.2453435 239.395586,85.3193435 239.827586,87.3933435 C240.173586,88.7763435 240.086586,90.2453435 240.518586,91.6283435 C241.037586,93.4433435 240.518586,95.4303435 241.037586,97.2453435 C241.123586,97.4183435 241.210586,97.6773435 241.296586,97.8503435 C241.642586,98.1963435 241.901586,98.5413435 241.383586,99.0603435 C241.296586,99.1463435 241.296586,99.4923435 241.383586,99.7513435 C241.555586,99.5793435 241.642586,99.4063435 241.815586,99.1463435 C241.815586,99.3193435 241.901586,99.4063435 241.901586,99.4923435 C241.901586,99.8383435 241.815586,100.183344 241.901586,100.529344 C241.901586,100.702344 242.074586,100.961344 242.160586,101.134344 C242.333586,100.961344 242.506586,100.875344 242.852586,100.616344 C243.629586,103.554344 243.716586,106.492344 243.716586,109.517344 C243.716586,112.369344 244.234586,115.220344 243.025586,117.986344 C243.284586,117.035344 242.679586,116.171344 242.938586,115.307344 L242.938586,115.307344 L242.938586,115.307344 Z"></path>
		<path d="M188.001,149.197 C188.087,149.197 188.174,149.284 188.174,149.284 L188.087,149.197 C188.087,149.111 188.087,149.111 188.001,149.197 L188.001,149.197 L188.001,149.197 Z M201.655,234.58 C200.705,235.271 199.754,235.876 198.544,236.135 C198.458,236.049 198.458,235.962 198.371,235.876 C199.322,235.271 200.359,234.666 201.31,234.061 C201.396,234.234 201.569,234.407 201.655,234.58 L201.655,234.58 L201.655,234.58 Z M39.619,117.481 C40.569,116.271 41.52,115.061 42.557,113.852 C42.643,113.938 43.335,114.111 43.421,114.197 C42.471,115.407 41.174,117.049 40.224,118.345 C40.051,118.173 39.792,117.568 39.619,117.481 L39.619,117.481 L39.619,117.481 Z M15.076,159.827 C14.384,158.358 13.693,156.802 13.002,155.333 C13.088,155.247 13.693,154.987 13.779,154.987 C14.73,156.37 15.162,158.012 15.853,159.481 C15.853,159.481 15.162,159.827 15.076,159.827 L15.076,159.827 L15.076,159.827 Z M37.113,118.345 C36.594,119.123 36.076,119.987 35.557,120.765 C35.471,120.679 34.52,121.111 34.434,121.024 C34.952,120.247 36.248,118.864 36.767,118.086 C36.853,118.173 36.94,118.259 37.113,118.345 L37.113,118.345 L37.113,118.345 Z M192.408,238.123 C192.495,238.123 192.495,238.036 192.581,238.036 C193.186,238.123 193.878,238.209 194.569,238.209 C193.445,238.987 192.754,238.901 192.408,238.123 L192.408,238.123 L192.408,238.123 Z M37.285,121.975 C37.372,121.716 37.545,121.456 37.717,121.197 C37.89,121.197 38.15,121.111 38.15,121.111 C38.495,120.506 38.495,120.074 38.841,119.555 C38.755,119.469 38.668,119.469 38.582,119.382 C38.063,119.728 37.545,120.16 37.026,120.506 C37.199,120.679 37.199,120.765 37.199,120.938 C36.508,120.852 36.248,121.197 35.903,122.148 C35.816,122.407 35.384,122.493 34.952,122.839 C34.866,123.012 34.779,123.444 34.606,123.876 L34.693,123.963 C34.52,124.135 34.261,124.222 34.261,124.222 C33.742,124.74 33.137,125.173 32.619,125.691 C32.532,125.95 32.446,126.21 32.446,126.469 C33.051,125.864 34.088,124.74 34.866,124.049 L34.952,124.135 C35.298,123.617 35.557,123.098 35.903,122.58 C35.989,122.666 35.989,122.753 36.076,122.839 C35.816,123.53 35.557,124.308 35.298,125 C35.125,125.086 34.866,125.259 34.866,125.173 C34.52,125.432 34.261,125.777 33.915,126.037 L32.36,127.074 C31.495,127.852 30.631,128.543 29.681,129.321 C29.076,130.271 28.471,131.135 27.779,132.259 C28.816,132 29.076,132.432 28.989,133.296 C30.199,133.469 30.285,132.518 30.631,131.827 C30.718,131.654 30.804,131.308 30.977,131.222 C31.755,130.531 32.619,129.926 33.483,129.234 C33.656,129.061 33.656,128.716 33.656,128.456 C33.656,128.37 33.224,128.37 32.965,128.284 C33.742,127.419 34.866,125.95 35.644,125 C36.076,124.74 36.508,124.395 36.508,124.135 C36.421,123.185 37.026,122.926 37.717,122.58 C37.372,122.321 37.285,122.061 37.285,121.975 L37.285,121.975 L37.285,121.975 Z"></path>
		<path d="M39.014,121.024 C38.668,121.629 38.323,122.148 37.977,122.753 L37.458,122.493 C37.113,124.481 35.903,126.21 34.693,126.555 C35.039,126.728 35.384,126.901 35.644,126.814 C35.903,126.728 36.076,126.296 36.248,126.037 L38.582,122.666 L39.36,121.37 L39.014,121.024 L39.014,121.024 Z M10.236,158.962 C10.668,158.962 11.1,159.049 11.619,159.049 C11.619,158.703 12.051,158.79 12.051,158.444 L12.31,158.444 C12.31,158.876 12.397,159.222 12.397,159.654 L10.582,159.654 C10.495,159.567 10.15,159.049 10.236,158.962 L10.236,158.962 L10.236,158.962 Z M9.545,154.987 C9.286,154.728 8.853,154.469 8.853,154.209 C8.767,153.864 9.026,153.432 9.286,153 C9.458,153.604 9.545,154.123 9.718,154.728 C9.631,154.814 9.545,154.901 9.545,154.987 L9.545,154.987 L9.545,154.987 Z M11.705,149.456 C12.051,150.321 12.397,151.271 12.742,152.135 C12.656,152.135 12.137,152.395 12.051,152.481 C11.705,151.617 11.273,150.666 10.928,149.802 C11.014,149.716 11.532,149.456 11.705,149.456 L11.705,149.456 L11.705,149.456 Z M204.075,232.074 C204.507,231.901 205.026,231.814 205.717,231.641 C204.939,232.246 204.334,232.678 203.816,233.197 C203.729,233.11 203.643,233.024 203.557,233.024 C203.729,232.678 203.902,232.419 204.075,232.073 L204.075,232.074 L204.075,232.074 Z M97.866,49.469 C98.384,49.123 98.816,48.864 99.335,48.518 L99.508,48.691 C98.989,49.383 98.557,50.074 97.952,50.938 C97.866,50.333 97.866,49.987 97.779,49.555 C97.693,49.555 97.779,49.555 97.866,49.469 L97.866,49.469 L97.866,49.469 Z M123.186,93.197 C123.964,92.852 124.742,92.506 125.693,92.074 C125.606,92.592 125.606,92.938 125.606,93.284 C125.347,93.197 125.001,93.111 124.742,93.111 C124.224,93.197 123.273,93.889 122.841,93.975 C122.754,93.975 123.186,93.284 123.186,93.197 L123.186,93.197 L123.186,93.197 Z M188.001,166.481 C188.174,167.345 189.816,167.777 188.174,168.641 C188.433,168.814 188.692,168.901 188.952,169.074 C188.952,169.16 188.865,169.333 188.779,169.419 C188.606,169.506 188.26,169.679 188.087,169.592 C188.001,169.592 187.828,169.246 187.828,169.074 C187.828,168.296 187.915,167.518 188.001,166.481 L188.001,166.481 L188.001,166.481 Z"></path>
	</g>
</svg>
